<?xml version="1.0" encoding="utf-8"?>
<!-- Generator: Adobe Illustrator 19.0.1, SVG Export Plug-In . SVG Version: 6.00 Build 0)  -->
<svg version="1.1" xmlns="http://www.w3.org/2000/svg" xmlns:xlink="http://www.w3.org/1999/xlink" x="0px" y="0px"
	 viewBox="0 0 24 24" style="enable-background:new 0 0 24 24;" xml:space="preserve">
<style type="text/css">
	.st0{display:none;}
	.st1{display:inline;fill:#FFFFFF;}
	.st2{display:inline;}
	.st3{fill:#D1D3D4;}
	.st4{display:inline;fill:none;stroke:#D1D3D4;stroke-width:0.25;stroke-miterlimit:10;}
</style>
<g id="White_-_TURN_OFF" class="st0">
	<rect x="-18" y="-18" class="st1" width="60" height="60"/>
</g>
<g id="Grid_-_TURN_OFF" class="st0">
	<g class="st2">
		<path class="st3" d="M23.7744007,0.20508v23.5693207H0.20508V0.20508H23.7744007 M24.0244007-0.04492H-0.04492v24.0693207
			h24.0693207V-0.04492L24.0244007-0.04492z"/>
	</g>
	<line class="st4" x1="4" y1="23.8876991" x2="4" y2="0.1123"/>
	<line class="st4" x1="8" y1="23.8876991" x2="8" y2="0.1123"/>
	<line class="st4" x1="12" y1="23.8876991" x2="12" y2="0.1123"/>
	<line class="st4" x1="16" y1="23.8876991" x2="16" y2="0.1123"/>
	<line class="st4" x1="20" y1="23.8876991" x2="20" y2="0.1123"/>
	<line class="st4" x1="23.8876991" y1="20" x2="0.1123" y2="20"/>
	<line class="st4" x1="23.8876991" y1="16" x2="0.1123" y2="16"/>
	<line class="st4" x1="23.8876991" y1="12" x2="0.1123" y2="12"/>
	<line class="st4" x1="23.8876991" y1="8" x2="0.1123" y2="8"/>
	<line class="st4" x1="23.8876991" y1="4" x2="0.1123" y2="4"/>
</g>
<g id="Title_-_TURN_OFF" class="st0">
	<rect x="-19.7084999" y="38.8280983" style="display:inline;fill:none;" width="63.4165001" height="7.5907998"/>
	<text transform="matrix(1 0 0 1 -2.1396484 44.0288048)" class="st2"><tspan x="0" y="0" style="font-family:'Metric-Regular'; font-size:8px;">Analyti</tspan><tspan x="21.7915039" y="0" style="font-family:'Metric-Regular'; font-size:8px;">c</tspan><tspan x="25.1357422" y="0" style="font-family:'Metric-Regular'; font-size:8px;">s</tspan></text>
</g>
<g id="White_Icon" class="st0">
	<path class="st1" d="M11.9995003,24C5.9341002,24,0.99951,19.0653992,0.99951,13
		c0-5.7284999,4.4013901-10.4482403,9.9999905-10.95508V0h1c4.0609989,0,7.9496994,1.94336,10.3988991,5.1982002L23,5.9990001
		l-1.6366997,1.2276001C22.4375,8.9629002,23,10.9394999,23,13C23,19.0653992,18.0645008,24,11.9995003,24z M10.9995003,4.0552001
		C6.5054002,4.5542002,2.99951,8.3754997,2.99951,13c0,4.9629002,4.0370903,9,8.9999905,9C16.9629002,22,21,17.9629002,21,13
		c0-1.6239996-0.4277-3.1845999-1.2441006-4.5669003L10.9995003,15V4.0552001z M12.9995003,2.0463901V11l7.1606998-5.3716002
		C18.3085995,3.5878899,15.7363005,2.3007801,12.9995003,2.0463901z"/>
</g>
<g id="Black_Icon">
	<path d="M11.9995003,24C5.9341002,24,0.99951,19.0653992,0.99951,13c0-5.7284999,4.4013901-10.4482403,9.9999905-10.95508V0h1
		c4.0609989,0,7.9496994,1.94336,10.3988991,5.1982002L23,5.9990001l-1.6366997,1.2276001C22.4375,8.9629002,23,10.9394999,23,13
		C23,19.0653992,18.0645008,24,11.9995003,24z M10.9995003,4.0552001C6.5054002,4.5542002,2.99951,8.3754997,2.99951,13
		c0,4.9629002,4.0370903,9,8.9999905,9C16.9629002,22,21,17.9629002,21,13c0-1.6239996-0.4277-3.1845999-1.2441006-4.5669003
		L10.9995003,15V4.0552001z M12.9995003,2.0463901V11l7.1606998-5.3716002
		C18.3085995,3.5878899,15.7363005,2.3007801,12.9995003,2.0463901z"/>
</g>
</svg>
