<?xml version="1.0" encoding="utf-8"?>
<!-- Generator: Adobe Illustrator 19.2.1, SVG Export Plug-In . SVG Version: 6.00 Build 0)  -->
<svg version="1.1" xmlns="http://www.w3.org/2000/svg" xmlns:xlink="http://www.w3.org/1999/xlink" x="0px" y="0px"
	 viewBox="0 0 36 36" style="enable-background:new 0 0 36 36;" xml:space="preserve">
<style type="text/css">
	.st0{display:none;}
	.st1{display:inline;fill:none;stroke:#D1D3D4;stroke-width:0.25;stroke-miterlimit:10;}
	.st2{display:inline;}
	.st3{display:inline;fill:#FFFFFF;}
	.st4{fill:#FFFFFF;}
	.st5{fill:#00B388;}
</style>
<g id="Grid_-_TURN_OFF" class="st0">
	<rect x="0.112305" y="0.112305" class="st1" width="35.7753944" height="35.7753944"/>
	<line class="st1" x1="35.8876991" y1="31.9120998" x2="0.112305" y2="31.9120998"/>
	<line class="st1" x1="35.8876991" y1="27.9375" x2="0.112305" y2="27.9375"/>
	<line class="st1" x1="35.8876991" y1="23.9629002" x2="0.112305" y2="23.9629002"/>
	<line class="st1" x1="35.8876991" y1="19.9873009" x2="0.112305" y2="19.9873009"/>
	<line class="st1" x1="35.8876991" y1="16.0126991" x2="0.112305" y2="16.0126991"/>
	<line class="st1" x1="35.8876991" y1="12.0375996" x2="0.112305" y2="12.0375996"/>
	<line class="st1" x1="35.8876991" y1="8.0625" x2="0.112305" y2="8.0625"/>
	<line class="st1" x1="35.8876991" y1="4.0874" x2="0.112305" y2="4.0874"/>
	<line class="st1" x1="4.0874" y1="35.8876991" x2="4.0874" y2="0.112305"/>
	<line class="st1" x1="8.0625" y1="35.8876991" x2="8.0625" y2="0.112305"/>
	<line class="st1" x1="12.0375996" y1="35.8876991" x2="12.0375996" y2="0.112305"/>
	<line class="st1" x1="16.0126991" y1="35.8876991" x2="16.0126991" y2="0.112305"/>
	<line class="st1" x1="19.9873009" y1="35.8876991" x2="19.9873009" y2="0.112305"/>
	<line class="st1" x1="23.9629002" y1="35.8876991" x2="23.9629002" y2="0.112305"/>
	<line class="st1" x1="27.9375" y1="35.8876991" x2="27.9375" y2="0.112305"/>
	<line class="st1" x1="31.9120998" y1="35.8876991" x2="31.9120998" y2="0.112305"/>
	<rect x="-39.6001015" y="-39.6001015" class="st1" width="115.1996994" height="115.1996994"/>
</g>
<g id="Title_-_TURN_OFF" class="st0">
	<rect x="-13.7084999" y="44.8280983" style="display:inline;fill:none;" width="63.4165001" height="7.5907998"/>
	<text transform="matrix(1 0 0 1 5.3198242 50.0288048)" class="st2"><tspan x="0" y="0" style="font-family:'Metric-Regular'; font-size:8px;">Big d</tspan><tspan x="15.7519531" y="0" style="font-family:'Metric-Regular'; font-size:8px;">a</tspan><tspan x="19.3120117" y="0" style="font-family:'Metric-Regular'; font-size:8px;">t</tspan><tspan x="21.7758789" y="0" style="font-family:'Metric-Regular'; font-size:8px;">a</tspan></text>
</g>
<g id="white_bkgd_-_TURN_OFF" class="st0">
	<rect x="-17" y="-17" class="st3" width="70" height="70"/>
</g>
<g id="_x31__Color_Icon">
	<g>
		<path class="st4" d="M23.5830002,10c0.7334003,0.0448999,1.4501991,0.1904001,2.1455002,0.3555002
			C24.5020008,4.45117,19.2616997,0,13,0C5.8315401,0,0,5.8320298,0,13c0,6.2616997,4.45117,11.5028992,10.3555002,12.7285004
			c-0.1660004-0.6972008-0.2695999-1.4150009-0.3155003-2.1494007C7.0664101,22.7451,4.5996099,20.6991997,3.21436,18h3.6879799
			c0.66504,2.0400009,1.7324305,3.9141006,3.1347599,5.5146008C10.0234003,23.2714996,10,23.0321999,10,22.7861004
			c0-0.8036995,0.0839996-1.5869007,0.2265997-2.3495998C9.7441397,19.6688995,9.3339796,18.8544998,9.0117197,18H10.9375
			c0.2852001-0.7012005,0.6328001-1.3672009,1.0312996-2H8.4209003c-0.2119207-0.9765997-0.3330107-1.9794998-0.3330107-3
			s0.1220703-2.0234003,0.3339901-3H12.04v5.8828001c0.5674-0.8799,1.2403002-1.6836004,2-2.3984003V10H23.5830002z M22.7852001,8
			h-3.6093998c-0.6729012-2.0634799-1.7509995-3.9619098-3.1778002-5.5742197C18.9561005,3.26563,21.4062996,5.3115201,22.7852001,8
			z M14.04,3.2578101C15.3633003,4.60742,16.3964996,6.2216802,17.0683994,8H14.04V3.2578101z M12.04,8H9.0107403
			C9.6835899,6.2206998,10.7167997,4.60742,12.04,3.2578101V8z M10.1073999,2.3984399
			C8.6679697,4.0166001,7.58008,5.92383,6.9033198,8H3.21436C4.6103501,5.2793002,7.10254,3.2197299,10.1073999,2.3984399z M2,13
			c0-1.0410004,0.1547899-2.0448999,0.42676-3h3.9677699c-0.1855497,0.9823999-0.3066397,1.9823999-0.3066397,3
			c0,1.0186005,0.1206098,2.0176001,0.3066397,3H2.42627C2.1547899,15.0448999,2,14.0410004,2,13z"/>
		<g>
			<path class="st4" d="M36,34.5858994l-4.9169998-4.9188995c1.5517998-1.8682003,2.4873009-4.2675991,2.4873009-6.8808994
				C33.5703011,16.8388996,28.7313995,12,22.7831993,12C16.8379002,12,12,16.8388996,12,22.7861004
				c0,5.9492989,4.8379002,10.7890987,10.7831993,10.7890987c2.6172009,0,5.017601-0.9375,6.8867016-2.4931984L34.5858994,36
				L36,34.5858994z M14,22.7861004C14,17.9414005,17.9395008,14,22.7831993,14c4.8457012,0,8.7870998,3.9414005,8.7870998,8.7861004
				c0,4.8466988-3.9413986,8.7890987-8.7870998,8.7890987C17.9395008,31.5751991,14,27.6327991,14,22.7861004z"/>
		</g>
		<path class="st5" d="M28.2910004,22.5830002h-1.5V18.75h-1.0820007v-1.5h1.8320007c0.4140987,0,0.75,0.3358994,0.75,0.75
			V22.5830002z"/>
		<path class="st5" d="M19.2910004,28.8330002c-1.1914005,0-2.125-1.1348-2.125-2.5830002s0.9335995-2.5830002,2.125-2.5830002
			s2.125,1.1348,2.125,2.5830002S20.4824009,28.8330002,19.2910004,28.8330002z M19.2910004,25.1669998
			c-0.2949009,0-0.625,0.4629002-0.625,1.0830002s0.3300991,1.0830002,0.625,1.0830002c0.294899,0,0.625-0.4629002,0.625-1.0830002
			S19.5858994,25.1669998,19.2910004,25.1669998z"/>
		<path class="st5" d="M27.0839996,28.8330002c-1.1914005,0-2.125-1.1348-2.125-2.5830002s0.9335995-2.5830002,2.125-2.5830002
			s2.125,1.1348,2.125,2.5830002S28.2754002,28.8330002,27.0839996,28.8330002z M27.0839996,25.1669998
			c-0.294899,0-0.625,0.4629002-0.625,1.0830002s0.330101,1.0830002,0.625,1.0830002c0.2949009,0,0.625-0.4629002,0.625-1.0830002
			S27.3789005,25.1669998,27.0839996,25.1669998z"/>
		<path class="st5" d="M19.5839996,22.5830002h-1.5V18.75H17v-1.5h1.8339996c0.4139996,0,0.75,0.3358994,0.75,0.75V22.5830002z"/>
		<path class="st5" d="M24.1660004,29h-1.5v-3.8330002h-1.0820007v-1.5h1.8320007c0.4140987,0,0.75,0.3358994,0.75,0.75V29z"/>
		<path class="st5" d="M22.9589996,22.4160004c-1.1914005,0-2.125-1.1338005-2.125-2.5820007
			c0-1.4487,0.9335995-2.5839996,2.125-2.5839996s2.125,1.1352997,2.125,2.5839996
			C25.0839996,21.2821999,24.1504002,22.4160004,22.9589996,22.4160004z M22.9589996,18.75
			c-0.294899,0-0.625,0.4638996-0.625,1.0839996c0,0.6191006,0.330101,1.0820007,0.625,1.0820007
			c0.2949009,0,0.625-0.4629002,0.625-1.0820007C23.5839996,19.2138996,23.2539005,18.75,22.9589996,18.75z"/>
	</g>
</g>
<g id="_x32__Color_Icon" class="st0">
	<g class="st2">
		<path d="M23.5830002,10c0.7334003,0.0448999,1.4501991,0.1904001,2.1455002,0.3555002C24.5020008,4.45117,19.2616997,0,13,0
			C5.8315401,0,0,5.8320298,0,13c0,6.2616997,4.45117,11.5028992,10.3555002,12.7285004
			c-0.1660004-0.6972008-0.2695999-1.4150009-0.3155003-2.1494007C7.0664101,22.7451,4.5996099,20.6991997,3.21436,18h3.6879799
			c0.66504,2.0400009,1.7324305,3.9141006,3.1347599,5.5146008C10.0234003,23.2714996,10,23.0321999,10,22.7861004
			c0-0.8036995,0.0839996-1.5869007,0.2265997-2.3495998C9.7441397,19.6688995,9.3339796,18.8544998,9.0117197,18H10.9375
			c0.2852001-0.7012005,0.6328001-1.3672009,1.0312996-2H8.4209003c-0.2119207-0.9765997-0.3330107-1.9794998-0.3330107-3
			s0.1220703-2.0234003,0.3339901-3H12.04v5.8828001c0.5674-0.8799,1.2403002-1.6836004,2-2.3984003V10H23.5830002z M22.7852001,8
			h-3.6093998c-0.6729012-2.0634799-1.7509995-3.9619098-3.1778002-5.5742197C18.9561005,3.26563,21.4062996,5.3115201,22.7852001,8
			z M14.04,3.2578101C15.3633003,4.60742,16.3964996,6.2216802,17.0683994,8H14.04V3.2578101z M12.04,8H9.0107403
			C9.6835899,6.2206998,10.7167997,4.60742,12.04,3.2578101V8z M10.1073999,2.3984399
			C8.6679697,4.0166001,7.58008,5.92383,6.9033198,8H3.21436C4.6103501,5.2793002,7.10254,3.2197299,10.1073999,2.3984399z M2,13
			c0-1.0410004,0.1547899-2.0448999,0.42676-3h3.9677699c-0.1855497,0.9823999-0.3066397,1.9823999-0.3066397,3
			c0,1.0186005,0.1206098,2.0176001,0.3066397,3H2.42627C2.1547899,15.0448999,2,14.0410004,2,13z"/>
		<g>
			<path d="M36,34.5858994l-4.9169998-4.9188995c1.5517998-1.8682003,2.4873009-4.2675991,2.4873009-6.8808994
				C33.5703011,16.8388996,28.7313995,12,22.7831993,12C16.8379002,12,12,16.8388996,12,22.7861004
				c0,5.9492989,4.8379002,10.7890987,10.7831993,10.7890987c2.6172009,0,5.017601-0.9375,6.8867016-2.4931984L34.5858994,36
				L36,34.5858994z M14,22.7861004C14,17.9414005,17.9395008,14,22.7831993,14c4.8457012,0,8.7870998,3.9414005,8.7870998,8.7861004
				c0,4.8466988-3.9413986,8.7890987-8.7870998,8.7890987C17.9395008,31.5751991,14,27.6327991,14,22.7861004z"/>
		</g>
		<path class="st5" d="M28.2910004,22.5830002h-1.5V18.75h-1.0820007v-1.5h1.8320007c0.4140987,0,0.75,0.3358994,0.75,0.75
			V22.5830002z"/>
		<path class="st5" d="M19.2910004,28.8330002c-1.1914005,0-2.125-1.1348-2.125-2.5830002s0.9335995-2.5830002,2.125-2.5830002
			s2.125,1.1348,2.125,2.5830002S20.4824009,28.8330002,19.2910004,28.8330002z M19.2910004,25.1669998
			c-0.2949009,0-0.625,0.4629002-0.625,1.0830002s0.3300991,1.0830002,0.625,1.0830002c0.294899,0,0.625-0.4629002,0.625-1.0830002
			S19.5858994,25.1669998,19.2910004,25.1669998z"/>
		<path class="st5" d="M27.0839996,28.8330002c-1.1914005,0-2.125-1.1348-2.125-2.5830002s0.9335995-2.5830002,2.125-2.5830002
			s2.125,1.1348,2.125,2.5830002S28.2754002,28.8330002,27.0839996,28.8330002z M27.0839996,25.1669998
			c-0.294899,0-0.625,0.4629002-0.625,1.0830002s0.330101,1.0830002,0.625,1.0830002c0.2949009,0,0.625-0.4629002,0.625-1.0830002
			S27.3789005,25.1669998,27.0839996,25.1669998z"/>
		<path class="st5" d="M19.5839996,22.5830002h-1.5V18.75H17v-1.5h1.8339996c0.4139996,0,0.75,0.3358994,0.75,0.75V22.5830002z"/>
		<path class="st5" d="M24.1660004,29h-1.5v-3.8330002h-1.0820007v-1.5h1.8320007c0.4140987,0,0.75,0.3358994,0.75,0.75V29z"/>
		<path class="st5" d="M22.9589996,22.4160004c-1.1914005,0-2.125-1.1338005-2.125-2.5820007
			c0-1.4487,0.9335995-2.5839996,2.125-2.5839996s2.125,1.1352997,2.125,2.5839996
			C25.0839996,21.2821999,24.1504002,22.4160004,22.9589996,22.4160004z M22.9589996,18.75
			c-0.294899,0-0.625,0.4638996-0.625,1.0839996c0,0.6191006,0.330101,1.0820007,0.625,1.0820007
			c0.2949009,0,0.625-0.4629002,0.625-1.0820007C23.5839996,19.2138996,23.2539005,18.75,22.9589996,18.75z"/>
	</g>
</g>
<g id="_x31_C_EMF_Icon" class="st0">
	<g class="st2">
		<path class="st4" d="M35.8652-7.6001c2.3476982,0.1440501,4.6407013,0.6093802,6.8661995,1.1377001
			C38.8065987-25.3563995,22.0370998-39.6001015,2-39.6001015C-20.9389992-39.6001015-39.6001015-20.9375-39.6001015,2
			c0,20.0370998,14.2437019,36.8096008,33.1377029,40.7313995C-6.99365,40.5-7.3252001,38.2030983-7.4716802,35.8535004
			C-16.9873009,33.1846008-24.8813,26.6376991-29.3139992,18h11.8013
			c2.1283989,6.5282993,5.5438995,12.5254002,10.031249,17.6464996C-7.5249,34.8690987-7.6001,34.1035004-7.6001,33.3153992
			c0-2.5712986,0.2690501-5.0780983,0.7251-7.5184994C-8.4189501,23.3407993-9.7314501,20.7343998-10.7627001,18h6.1626
			c0.9126-2.2437,2.0249-4.375,3.3003001-6.3999004h-11.3535004C-13.3311005,8.4750996-13.7187996,5.2656298-13.7187996,2
			s0.3906994-6.4751,1.0688992-9.6000996H-1.07178v18.8251991C0.743652,8.4091797,2.89697,5.8374,5.3281298,3.5497999V-7.6001
			H35.8652z M33.3125-14H21.7626991c-2.1532993-6.6030006-5.6034985-12.6781998-10.1688995-17.8374004
			C21.0596008-29.1499004,28.9004002-22.6030006,33.3125-14z M5.3281298-29.1748009
			C9.5625-24.8563995,12.8687-19.6903992,15.0186005-14H5.3281298V-29.1748009z M-1.07178-14h-9.69382
			c2.1533003-5.6938,5.4594502-10.8563995,9.69382-15.1748009V-14z M-7.25635-31.9248009
			c-4.6059499,5.1777-8.08745,11.2812004-10.2529507,17.9248009h-11.8046989
			C-24.8467007-22.7061005-16.8721008-29.2968998-7.25635-31.9248009z M-33.2001991,2
			c0-3.3310499,0.4955978-6.5439501,1.3656998-9.6000996h12.6968002C-19.7313995-4.4560499-20.1187-1.25635-20.1187,2
			c0,3.2592802,0.3857994,6.4560499,0.9810009,9.6000996h-12.6982002C-32.7046013,8.5439501-33.2001991,5.3310499-33.2001991,2z"/>
		<g>
			<path class="st4" d="M75.5996017,71.0752029L59.8652,55.3339996c4.9659004-5.9776001,7.9600029-13.6562996,7.9600029-22.0186005
				c0-19.0312004-15.4844017-34.5155983-34.5186043-34.5155983C14.2812996-1.2002-1.2002,14.2841997-1.2002,33.3153992
				c0,19.0381012,15.4814997,34.5253983,34.5067978,34.5253983c8.375,0,16.0557022-3,22.0372009-7.9784966l15.7314034,15.7373009
				L75.5996017,71.0752029z M5.2002001,33.3153992c0-15.5028992,12.6059999-28.1152,28.1063995-28.1152
				c15.5059013,0,28.1182022,12.6122999,28.1182022,28.1152c0,15.5098-12.6123009,28.125-28.1182022,28.125
				C17.8062,61.4403992,5.2002001,48.8251991,5.2002001,33.3153992z"/>
		</g>
		<path class="st5" d="M50.9315987,32.6660004h-4.8006973V20.4004002h-3.4620018v-4.8003006h5.8624001
			c1.3250999,0,2.4002991,1.0747013,2.4002991,2.3999004V32.6660004z"/>
		<path class="st5" d="M22.1308994,52.6660004c-3.8120995,0-6.799799-3.6318016-6.799799-8.2656021
			c0-4.6348,2.9876995-8.2655983,6.799799-8.2655983c3.8125,0,6.8007011,3.6307983,6.8007011,8.2655983
			C28.9316006,49.0341988,25.9433994,52.6660004,22.1308994,52.6660004z M22.1308994,40.9346008
			c-0.9433994,0-2,1.4813995-2,3.4657974c0,1.9844017,1.0566006,3.4648018,2,3.4648018c0.9442997,0,2-1.4804001,2-3.4648018
			C24.1308994,42.4160004,23.0751991,40.9346008,22.1308994,40.9346008z"/>
		<path class="st5" d="M47.0684013,52.6660004c-3.8125,0-6.7998009-3.6318016-6.7998009-8.2656021
			c0-4.6348,2.9873009-8.2655983,6.7998009-8.2655983s6.8006973,3.6307983,6.8006973,8.2655983
			C53.8690987,49.0341988,50.8809013,52.6660004,47.0684013,52.6660004z M47.0684013,40.9346008
			c-0.9434013,0-2,1.4813995-2,3.4657974c0,1.9844017,1.0565987,3.4648018,2,3.4648018c0.9442978,0,2-1.4804001,2-3.4648018
			C49.0684013,42.4160004,48.0126991,40.9346008,47.0684013,40.9346008z"/>
		<path class="st5" d="M23.0683994,32.6660004h-4.799799V20.4004002h-3.4688005v-4.8003006h5.8690996
			c1.325201,0,2.3994999,1.0747013,2.3994999,2.3999004V32.6660004z"/>
		<path class="st5" d="M37.7313995,53.2001991h-4.7998009V40.9346008h-3.4627991V36.1348h5.8623009
			c1.3251991,0,2.4002991,1.0741997,2.4002991,2.3993988V53.2001991z"/>
		<path class="st5" d="M33.8690987,32.1309013c-3.8124981,0-6.8006992-3.6280022-6.8006992-8.2618008
			c0-4.6366997,2.9882011-8.269001,6.8006992-8.269001s6.7998009,3.6323013,6.7998009,8.269001
			C40.6688995,28.5028992,37.6815987,32.1309013,33.8690987,32.1309013z M33.8690987,20.4004002
			c-0.9442978,0-1.9999981,1.4843998-1.9999981,3.4687004c0,1.9804993,1.0557003,3.4619999,1.9999981,3.4619999
			c0.9434013,0,2-1.4815006,2-3.4619999C35.8690987,21.8848,34.8125,20.4004002,33.8690987,20.4004002z"/>
	</g>
</g>
<g id="_x32_C_EMF_Icon_1_" class="st0">
	<g class="st2">
		<path d="M35.8652-7.6001c2.3476982,0.1440501,4.6407013,0.6093802,6.8661995,1.1377001
			C38.8065987-25.3563995,22.0370998-39.6001015,2-39.6001015C-20.9389992-39.6001015-39.6001015-20.9375-39.6001015,2
			c0,20.0370998,14.2437019,36.8096008,33.1377029,40.7313995C-6.99365,40.5-7.3252001,38.2030983-7.4716802,35.8535004
			C-16.9873009,33.1846008-24.8813,26.6376991-29.3139992,18h11.8013
			c2.1283989,6.5282993,5.5438995,12.5254002,10.031249,17.6464996C-7.5249,34.8690987-7.6001,34.1035004-7.6001,33.3153992
			c0-2.5712986,0.2690501-5.0780983,0.7251-7.5184994C-8.4189501,23.3407993-9.7314501,20.7343998-10.7627001,18h6.1626
			c0.9126-2.2437,2.0249-4.375,3.3003001-6.3999004h-11.3535004C-13.3311005,8.4750996-13.7187996,5.2656298-13.7187996,2
			s0.3906994-6.4751,1.0688992-9.6000996H-1.07178v18.8251991C0.743652,8.4091797,2.89697,5.8374,5.3281298,3.5497999V-7.6001
			H35.8652z M33.3125-14H21.7626991c-2.1532993-6.6030006-5.6034985-12.6781998-10.1688995-17.8374004
			C21.0596008-29.1499004,28.9004002-22.6030006,33.3125-14z M5.3281298-29.1748009
			C9.5625-24.8563995,12.8687-19.6903992,15.0186005-14H5.3281298V-29.1748009z M-1.07178-14h-9.69382
			c2.1533003-5.6938,5.4594502-10.8563995,9.69382-15.1748009V-14z M-7.25635-31.9248009
			c-4.6059499,5.1777-8.08745,11.2812004-10.2529507,17.9248009h-11.8046989
			C-24.8467007-22.7061005-16.8721008-29.2968998-7.25635-31.9248009z M-33.2001991,2
			c0-3.3310499,0.4955978-6.5439501,1.3656998-9.6000996h12.6968002C-19.7313995-4.4560499-20.1187-1.25635-20.1187,2
			c0,3.2592802,0.3857994,6.4560499,0.9810009,9.6000996h-12.6982002C-32.7046013,8.5439501-33.2001991,5.3310499-33.2001991,2z"/>
		<g>
			<path d="M75.5996017,71.0752029L59.8652,55.3339996c4.9659004-5.9776001,7.9600029-13.6562996,7.9600029-22.0186005
				c0-19.0312004-15.4844017-34.5155983-34.5186043-34.5155983C14.2812996-1.2002-1.2002,14.2841997-1.2002,33.3153992
				c0,19.0381012,15.4814997,34.5253983,34.5067978,34.5253983c8.375,0,16.0557022-3,22.0372009-7.9784966l15.7314034,15.7373009
				L75.5996017,71.0752029z M5.2002001,33.3153992c0-15.5028992,12.6059999-28.1152,28.1063995-28.1152
				c15.5059013,0,28.1182022,12.6122999,28.1182022,28.1152c0,15.5098-12.6123009,28.125-28.1182022,28.125
				C17.8062,61.4403992,5.2002001,48.8251991,5.2002001,33.3153992z"/>
		</g>
		<path class="st5" d="M50.9315987,32.6660004h-4.8006973V20.4004002h-3.4620018v-4.8003006h5.8624001
			c1.3250999,0,2.4002991,1.0747013,2.4002991,2.3999004V32.6660004z"/>
		<path class="st5" d="M22.1308994,52.6660004c-3.8120995,0-6.799799-3.6318016-6.799799-8.2656021
			c0-4.6348,2.9876995-8.2655983,6.799799-8.2655983c3.8125,0,6.8007011,3.6307983,6.8007011,8.2655983
			C28.9316006,49.0341988,25.9433994,52.6660004,22.1308994,52.6660004z M22.1308994,40.9346008
			c-0.9433994,0-2,1.4813995-2,3.4657974c0,1.9844017,1.0566006,3.4648018,2,3.4648018c0.9442997,0,2-1.4804001,2-3.4648018
			C24.1308994,42.4160004,23.0751991,40.9346008,22.1308994,40.9346008z"/>
		<path class="st5" d="M47.0684013,52.6660004c-3.8125,0-6.7998009-3.6318016-6.7998009-8.2656021
			c0-4.6348,2.9873009-8.2655983,6.7998009-8.2655983s6.8006973,3.6307983,6.8006973,8.2655983
			C53.8690987,49.0341988,50.8809013,52.6660004,47.0684013,52.6660004z M47.0684013,40.9346008
			c-0.9434013,0-2,1.4813995-2,3.4657974c0,1.9844017,1.0565987,3.4648018,2,3.4648018c0.9442978,0,2-1.4804001,2-3.4648018
			C49.0684013,42.4160004,48.0126991,40.9346008,47.0684013,40.9346008z"/>
		<path class="st5" d="M23.0683994,32.6660004h-4.799799V20.4004002h-3.4688005v-4.8003006h5.8690996
			c1.325201,0,2.3994999,1.0747013,2.3994999,2.3999004V32.6660004z"/>
		<path class="st5" d="M37.7313995,53.2001991h-4.7998009V40.9346008h-3.4627991V36.1348h5.8623009
			c1.3251991,0,2.4002991,1.0741997,2.4002991,2.3993988V53.2001991z"/>
		<path class="st5" d="M33.8690987,32.1309013c-3.8124981,0-6.8006992-3.6280022-6.8006992-8.2618008
			c0-4.6366997,2.9882011-8.269001,6.8006992-8.269001s6.7998009,3.6323013,6.7998009,8.269001
			C40.6688995,28.5028992,37.6815987,32.1309013,33.8690987,32.1309013z M33.8690987,20.4004002
			c-0.9442978,0-1.9999981,1.4843998-1.9999981,3.4687004c0,1.9804993,1.0557003,3.4619999,1.9999981,3.4619999
			c0.9434013,0,2-1.4815006,2-3.4619999C35.8690987,21.8848,34.8125,20.4004002,33.8690987,20.4004002z"/>
	</g>
</g>
</svg>
