<?xml version="1.0" encoding="utf-8"?>
<!-- Generator: Adobe Illustrator 19.0.1, SVG Export Plug-In . SVG Version: 6.00 Build 0)  -->
<svg version="1.1" xmlns="http://www.w3.org/2000/svg" xmlns:xlink="http://www.w3.org/1999/xlink" x="0px" y="0px"
	 viewBox="0 0 24 24" style="enable-background:new 0 0 24 24;" xml:space="preserve">
<style type="text/css">
	.st0{display:none;}
	.st1{display:inline;fill:#FFFFFF;}
	.st2{display:inline;}
	.st3{fill:#D1D3D4;}
	.st4{display:inline;fill:none;stroke:#D1D3D4;stroke-width:0.25;stroke-miterlimit:10;}
	.st5{fill:#FFFFFF;}
</style>
<g id="White_-_TURN_OFF" class="st0">
	<rect x="-18" y="-18" class="st1" width="60" height="60"/>
</g>
<g id="Grid_-_TURN_OFF" class="st0">
	<g class="st2">
		<path class="st3" d="M23.7744007,0.20508v23.5693207H0.20508V0.20508H23.7744007 M24.0244007-0.04492H-0.04492v24.0693207
			h24.0693207V-0.04492L24.0244007-0.04492z"/>
	</g>
	<line class="st4" x1="4" y1="23.8876991" x2="4" y2="0.1123"/>
	<line class="st4" x1="8" y1="23.8876991" x2="8" y2="0.1123"/>
	<line class="st4" x1="12" y1="23.8876991" x2="12" y2="0.1123"/>
	<line class="st4" x1="16" y1="23.8876991" x2="16" y2="0.1123"/>
	<line class="st4" x1="20" y1="23.8876991" x2="20" y2="0.1123"/>
	<line class="st4" x1="23.8876991" y1="20" x2="0.1123" y2="20"/>
	<line class="st4" x1="23.8876991" y1="16" x2="0.1123" y2="16"/>
	<line class="st4" x1="23.8876991" y1="12" x2="0.1123" y2="12"/>
	<line class="st4" x1="23.8876991" y1="8" x2="0.1123" y2="8"/>
	<line class="st4" x1="23.8876991" y1="4" x2="0.1123" y2="4"/>
</g>
<g id="Title_-_TURN_OFF" class="st0">
	<rect x="-19.7084999" y="38.8280983" style="display:inline;fill:none;" width="63.4165001" height="7.5907998"/>
	<text transform="matrix(1 0 0 1 -5.7719727 44.0288048)" class="st2"><tspan x="0" y="0" style="font-family:'Metric-Regular'; font-size:8px;">Cl</tspan><tspan x="5.9916992" y="0" style="font-family:'Metric-Regular'; font-size:8px;">o</tspan><tspan x="9.831543" y="0" style="font-family:'Metric-Regular'; font-size:8px;">ck alarm</tspan></text>
</g>
<g id="White_Icon">
	<g>
		<path class="st5" d="M22,12.5c0-0.8687-0.1229992-1.7069998-0.3320007-2.5112C23.1191006,8.9722004,24,7.3091002,24,5.5
			C24,2.4672899,21.5321999,0,18.5,0c-1.9433994,0-3.7147999,1.02148-4.7002001,2.6709001C13.2147999,2.5639601,12.6152,2.5,12,2.5
			s-1.2152996,0.0639601-1.8002996,0.1709001C9.2147999,1.02148,7.4443002,0,5.5,0C2.4672899,0,0,2.4672899,0,5.5
			c0,1.8091002,0.88086,3.4716997,2.3320301,4.4883003C2.12305,10.7924995,2,11.6313,2,12.5
			c0,2.5879002,0.9970701,4.9424,2.6162,6.7196999l-3.32323,3.3232994l1.4140601,1.4140015L6.105,20.5596008
			C7.7603002,21.7733994,9.7944002,22.5,12,22.5c2.2051001,0,4.2402-0.7266006,5.8955002-1.9403992l3.3974991,3.3973999
			l1.4140015-1.4140015l-3.3232002-3.3232994C21.0028992,17.4424,22,15.0879002,22,12.5z M18.5,2C20.4297009,2,22,3.5703101,22,5.5
			c0,0.9696999-0.3955002,1.875-1.0713005,2.5214996c-1.0761986-2.1357994-2.8886986-3.8378997-5.1093998-4.7597799
			C16.4717007,2.4741199,17.4442997,2,18.5,2z M2,5.5C2,3.5703101,3.5703101,2,5.5,2
			c1.0552001,0,2.0278001,0.4741199,2.6807003,1.2617199C5.9594998,4.1835999,4.1475,5.8853002,3.07178,8.0214996
			C2.3959999,7.3744998,2,6.4696999,2,5.5z M4,12.5c0-4.4111004,3.5889001-8,8-8s8,3.5888996,8,8s-3.5888996,8-8,8
			S4,16.9111004,4,12.5z"/>
		<polygon class="st5" points="13,7.5 11,7.5 11,12.9140997 14.2930002,16.2070007 15.7069998,14.7930002 13,12.0859003 		"/>
	</g>
</g>
<g id="Black_Icon" class="st0">
	<g class="st2">
		<path d="M22,12.5c0-0.8687-0.1229992-1.7069998-0.3320007-2.5112C23.1191006,8.9722004,24,7.3091002,24,5.5
			C24,2.4672899,21.5321999,0,18.5,0c-1.9433994,0-3.7147999,1.02148-4.7002001,2.6709001C13.2147999,2.5639601,12.6152,2.5,12,2.5
			s-1.2152996,0.0639601-1.8002996,0.1709001C9.2147999,1.02148,7.4443002,0,5.5,0C2.4672899,0,0,2.4672899,0,5.5
			c0,1.8091002,0.88086,3.4716997,2.3320301,4.4883003C2.12305,10.7924995,2,11.6313,2,12.5
			c0,2.5879002,0.9970701,4.9424,2.6162,6.7196999l-3.32323,3.3232994l1.4140601,1.4140015L6.105,20.5596008
			C7.7603002,21.7733994,9.7944002,22.5,12,22.5c2.2051001,0,4.2402-0.7266006,5.8955002-1.9403992l3.3974991,3.3973999
			l1.4140015-1.4140015l-3.3232002-3.3232994C21.0028992,17.4424,22,15.0879002,22,12.5z M18.5,2C20.4297009,2,22,3.5703101,22,5.5
			c0,0.9696999-0.3955002,1.875-1.0713005,2.5214996c-1.0761986-2.1357994-2.8886986-3.8378997-5.1093998-4.7597799
			C16.4717007,2.4741199,17.4442997,2,18.5,2z M2,5.5C2,3.5703101,3.5703101,2,5.5,2
			c1.0552001,0,2.0278001,0.4741199,2.6807003,1.2617199C5.9594998,4.1835999,4.1475,5.8853002,3.07178,8.0214996
			C2.3959999,7.3744998,2,6.4696999,2,5.5z M4,12.5c0-4.4111004,3.5889001-8,8-8s8,3.5888996,8,8s-3.5888996,8-8,8
			S4,16.9111004,4,12.5z"/>
		<polygon points="13,7.5 11,7.5 11,12.9140997 14.2930002,16.2070007 15.7069998,14.7930002 13,12.0859003 		"/>
	</g>
</g>
</svg>
