<?xml version="1.0" encoding="utf-8"?>
<!-- Generator: Adobe Illustrator 19.0.1, SVG Export Plug-In . SVG Version: 6.00 Build 0)  -->
<svg version="1.1" xmlns="http://www.w3.org/2000/svg" xmlns:xlink="http://www.w3.org/1999/xlink" x="0px" y="0px"
	 viewBox="0 0 24 24" style="enable-background:new 0 0 24 24;" xml:space="preserve">
<style type="text/css">
	.st0{display:none;}
	.st1{display:inline;fill:#FFFFFF;}
	.st2{display:inline;}
	.st3{fill:#D1D3D4;}
	.st4{display:inline;fill:none;stroke:#D1D3D4;stroke-width:0.25;stroke-miterlimit:10;}
</style>
<g id="White_-_TURN_OFF" class="st0">
	<rect x="-18" y="-18" class="st1" width="60" height="60"/>
</g>
<g id="Grid_-_TURN_OFF" class="st0">
	<g class="st2">
		<path class="st3" d="M23.8,0.2v23.6H0.2V0.2H23.8 M24,0H0V24H24V0L24,0z"/>
	</g>
	<line class="st4" x1="4" y1="23.9" x2="4" y2="0.1"/>
	<line class="st4" x1="8" y1="23.9" x2="8" y2="0.1"/>
	<line class="st4" x1="12" y1="23.9" x2="12" y2="0.1"/>
	<line class="st4" x1="16" y1="23.9" x2="16" y2="0.1"/>
	<line class="st4" x1="20" y1="23.9" x2="20" y2="0.1"/>
	<line class="st4" x1="23.9" y1="20" x2="0.1" y2="20"/>
	<line class="st4" x1="23.9" y1="16" x2="0.1" y2="16"/>
	<line class="st4" x1="23.9" y1="12" x2="0.1" y2="12"/>
	<line class="st4" x1="23.9" y1="8" x2="0.1" y2="8"/>
	<line class="st4" x1="23.9" y1="4" x2="0.1" y2="4"/>
</g>
<g id="Title_-_TURN_OFF" class="st0">
	<rect x="-19.7" y="38.8" style="display:inline;fill:none;" width="63.4" height="7.6"/>
	<text transform="matrix(1 0 0 1 3.7202 44.0288)" class="st2" style="font-family:'Metric-Regular'; font-size:8px;">Close</text>
</g>
<g id="White_Icon" class="st0">
	<polygon class="st1" points="20.3,21.7 12,13.4 3.7,21.7 2.3,20.3 10.6,12 2.3,3.7 3.7,2.3 12,10.6 20.3,2.3 21.7,3.7 13.4,12 
		21.7,20.3 	"/>
</g>
<g id="Black_Icon">
	<polygon points="20.3,21.7 12,13.4 3.7,21.7 2.3,20.3 10.6,12 2.3,3.7 3.7,2.3 12,10.6 20.3,2.3 21.7,3.7 13.4,12 21.7,20.3 	"/>
</g>
</svg>
