<?xml version="1.0" encoding="utf-8"?>
<!-- Generator: Adobe Illustrator 19.2.1, SVG Export Plug-In . SVG Version: 6.00 Build 0)  -->
<svg version="1.1" xmlns="http://www.w3.org/2000/svg" xmlns:xlink="http://www.w3.org/1999/xlink" x="0px" y="0px"
	 viewBox="0 0 36 36" style="enable-background:new 0 0 36 36;" xml:space="preserve">
<style type="text/css">
	.st0{display:none;}
	.st1{display:inline;fill:none;stroke:#D1D3D4;stroke-width:0.25;stroke-miterlimit:10;}
	.st2{display:inline;fill:none;stroke:#D1D2D3;stroke-width:0.25;stroke-miterlimit:10;}
	.st3{display:inline;}
	.st4{display:inline;fill:#FFFFFF;}
	.st5{fill:#FFFFFF;}
	.st6{fill:#00B388;}
</style>
<g id="Grid_-_TURN_OFF" class="st0">
	<rect x="0.112305" y="0.112305" class="st1" width="35.7753944" height="35.7753944"/>
	<line class="st1" x1="35.8876991" y1="31.9120998" x2="0.112305" y2="31.9120998"/>
	<line class="st1" x1="35.8876991" y1="27.9375" x2="0.112305" y2="27.9375"/>
	<line class="st1" x1="35.8876991" y1="23.9629002" x2="0.112305" y2="23.9629002"/>
	<line class="st1" x1="35.8876991" y1="19.9873009" x2="0.112305" y2="19.9873009"/>
	<line class="st1" x1="35.8876991" y1="16.0126991" x2="0.112305" y2="16.0126991"/>
	<line class="st1" x1="35.8876991" y1="12.0375996" x2="0.112305" y2="12.0375996"/>
	<line class="st1" x1="35.8876991" y1="8.0625" x2="0.112305" y2="8.0625"/>
	<line class="st1" x1="35.8876991" y1="4.0874" x2="0.112305" y2="4.0874"/>
	<line class="st1" x1="4.0874" y1="35.8876991" x2="4.0874" y2="0.112305"/>
	<line class="st1" x1="8.0625" y1="35.8876991" x2="8.0625" y2="0.112305"/>
	<line class="st1" x1="12.0375996" y1="35.8876991" x2="12.0375996" y2="0.112305"/>
	<line class="st1" x1="16.0126991" y1="35.8876991" x2="16.0126991" y2="0.112305"/>
	<line class="st1" x1="19.9873009" y1="35.8876991" x2="19.9873009" y2="0.112305"/>
	<line class="st1" x1="23.9629002" y1="35.8876991" x2="23.9629002" y2="0.112305"/>
	<line class="st1" x1="27.9375" y1="35.8876991" x2="27.9375" y2="0.112305"/>
	<line class="st1" x1="31.9120998" y1="35.8876991" x2="31.9120998" y2="0.112305"/>
	<rect x="-39.6001015" y="-39.6001015" class="st2" width="115.1996994" height="115.1996994"/>
</g>
<g id="Title_-_TURN_OFF" class="st0">
	<rect x="-22.0557003" y="44.8280983" style="display:inline;fill:none;" width="80.1103973" height="18.5907993"/>
	<text transform="matrix(1 0 0 1 -5.284668 50.0278282)" class="st3"><tspan x="0" y="0" style="font-family:'Metric-Regular'; font-size:8px;">Ene</tspan><tspan x="11.6323242" y="0" style="font-family:'Metric-Regular'; font-size:8px;">r</tspan><tspan x="14.1201172" y="0" style="font-family:'Metric-Regular'; font-size:8px;">gy s</tspan><tspan x="26.6640625" y="0" style="font-family:'Metric-Regular'; font-size:8px;">a</tspan><tspan x="30.2080078" y="0" style="font-family:'Metric-Regular'; font-size:8px;">vings</tspan></text>
</g>
<g id="white_bkgd_-_TURN_OFF" class="st0">
	<rect x="-17" y="-17" class="st4" width="70" height="70"/>
</g>
<g id="_x31__Color_Icon" class="st0">
	<g class="st3">
		<path class="st5" d="M18,36C8.0747099,36,0,27.9248009,0,18C0,8.0747099,8.0747099,0,18,0v2C9.1777296,2,2,9.1777296,2,18
			c0,8.8223,7.1777296,16,16,16c8.8223,0,16-7.1777,16-16h2C36,27.9248009,27.9248009,36,18,36z"/>
		<path class="st6" d="M33.3223,13.3788996C31.7675991,8.2299805,27.7665997,4.2294898,22.6201,2.6772499l0.5781002-1.9150429
			c5.7891006,1.746583,10.2901001,6.2470732,12.0381012,12.0385933L33.3223,13.3788996z"/>
		<g>
			<path class="st6" d="M16.2495003,29.125c-0.1366997,0-0.2754002-0.0282993-0.4067001-0.0869007
				c-0.4341002-0.1933994-0.6718998-0.6659985-0.5689001-1.1299L16.7534008,21.25H11
				c-0.3745003,0-0.7178001-0.2089996-0.8892002-0.5419998c-0.1713495-0.3339996-0.1420498-0.7343998,0.0752001-1.0391006
				l8.750001-12.2499495c0.2778988-0.3881903,0.788599-0.5258799,1.221199-0.3320403
				c0.4346008,0.1933603,0.6718998,0.6660204,0.5694008,1.12989L19.2471008,14.875H25
				c0.375,0,0.7178001,0.2095003,0.8896008,0.5424995c0.1708984,0.3330002,0.1416988,0.7339001-0.0761013,1.0386009
				l-8.7495003,12.25C16.8710995,28.9755993,16.5645008,29.125,16.2495003,29.125z M12.9434004,19.25H18
				c0.3031998,0,0.5902996,0.1376991,0.7803001,0.3740005c0.1893997,0.237299,0.2616997,0.5468998,0.1958008,0.8428001
				l-0.6841011,3.0790997L23.0566006,16.875H18c-0.3031998,0-0.5902996-0.1376991-0.7803001-0.3745003
				c-0.1893997-0.2362995-0.2616997-0.5464001-0.1958008-0.8422995l0.6841011-3.0791006L12.9434004,19.25z"/>
		</g>
	</g>
</g>
<g id="_x32__Color_Icon">
	<g>
		<path d="M18,36C8.0747099,36,0,27.9248009,0,18C0,8.0747099,8.0747099,0,18,0v2C9.1777296,2,2,9.1777296,2,18
			c0,8.8223,7.1777296,16,16,16c8.8223,0,16-7.1777,16-16h2C36,27.9248009,27.9248009,36,18,36z"/>
		<path class="st6" d="M33.3223,13.3788996C31.7675991,8.2299805,27.7665997,4.2294898,22.6201,2.6772499l0.5781002-1.9150429
			c5.7891006,1.746583,10.2901001,6.2470732,12.0381012,12.0385933L33.3223,13.3788996z"/>
		<g>
			<path class="st6" d="M16.2495003,29.125c-0.1366997,0-0.2754002-0.0282993-0.4067001-0.0869007
				c-0.4341002-0.1933994-0.6718998-0.6659985-0.5689001-1.1299L16.7534008,21.25H11
				c-0.3745003,0-0.7178001-0.2089996-0.8892002-0.5419998c-0.1713495-0.3339996-0.1420498-0.7343998,0.0752001-1.0391006
				l8.750001-12.2499495c0.2778988-0.3881903,0.788599-0.5258799,1.221199-0.3320403
				c0.4346008,0.1933603,0.6718998,0.6660204,0.5694008,1.12989L19.2471008,14.875H25
				c0.375,0,0.7178001,0.2095003,0.8896008,0.5424995c0.1708984,0.3330002,0.1416988,0.7339001-0.0761013,1.0386009
				l-8.7495003,12.25C16.8710995,28.9755993,16.5645008,29.125,16.2495003,29.125z M12.9434004,19.25H18
				c0.3031998,0,0.5902996,0.1376991,0.7803001,0.3740005c0.1893997,0.237299,0.2616997,0.5468998,0.1958008,0.8428001
				l-0.6841011,3.0790997L23.0566006,16.875H18c-0.3031998,0-0.5902996-0.1376991-0.7803001-0.3745003
				c-0.1893997-0.2362995-0.2616997-0.5464001-0.1958008-0.8422995l0.6841011-3.0791006L12.9434004,19.25z"/>
		</g>
	</g>
</g>
<g id="_x31_C_EMF_Icon" class="st0">
	<g class="st3">
		<path class="st5" d="M18,75.5996017C-13.7607002,75.5996017-39.6001015,49.7598-39.6001015,18
			c0-31.7607002,25.8394012-57.6001015,57.6001015-57.6001015v6.3999023c-28.2313995,0-51.2001991,22.9687996-51.2001991,51.2001991
			S-10.2313995,69.2002029,18,69.2002029S69.2002029,46.2313995,69.2002029,18h6.3993988
			C75.5996017,49.7598,49.7598,75.5996017,18,75.5996017z"/>
		<path class="st6" d="M67.0313034,3.2124c-4.9747047-16.4766006-17.7784042-29.2777996-34.2471046-34.2450981L34.6348-37.1610985
			C53.1591988-31.5718002,67.5625-17.1704006,73.1563034,1.3623L67.0313034,3.2124z"/>
		<g>
			<path class="st6" d="M12.3984003,53.5996017c-0.4375,0-0.8813-0.0898018-1.3017006-0.2773018
				c-1.38869-0.6192017-2.1499195-2.1319008-1.8203297-3.6161995l4.7343302-21.3057003H-4.3999
				c-1.19873,0-2.2968802-0.6690006-2.8452201-1.7343998c-0.54883-1.0692997-0.45508-2.3506012,0.2402401-3.325201
				L20.9951-15.8593998c0.8896999-1.2422009,2.5235004-1.6826,3.9081993-1.0625
				c1.3906002,0.6187,2.1494007,2.1314001,1.8213005,3.6156998L21.9902,8h18.4101982
				c1.1992035,0,2.2969017,0.6704102,2.8467026,1.7358398c0.5467987,1.0659599,0.4530983,2.3486605-0.2442017,3.32376
				L15.0049,52.2598C14.3877001,53.1221008,13.4062996,53.5996017,12.3984003,53.5996017z M1.81885,22H18
				c0.9701996,0,1.8887005,0.4403992,2.4971008,1.1973c0.6063995,0.7588005,0.8368988,1.75,0.6258984,2.6963005
				l-2.1883984,9.8535004l15.2469978-21.3472004H18c-0.9701996,0-1.8892002-0.4404001-2.4970999-1.1982002
				c-0.6058998-0.7564001-0.8374004-1.7486-0.6264-2.6954002l2.188899-9.8529797L1.81885,22z"/>
		</g>
	</g>
</g>
<g id="_x32_C_EMF_Icon" class="st0">
	<g class="st3">
		<path d="M18,75.5996017C-13.7607002,75.5996017-39.6001015,49.7598-39.6001015,18
			c0-31.7607002,25.8394012-57.6001015,57.6001015-57.6001015v6.3999023c-28.2313995,0-51.2001991,22.9687996-51.2001991,51.2001991
			S-10.2313995,69.2002029,18,69.2002029S69.2002029,46.2313995,69.2002029,18h6.3993988
			C75.5996017,49.7598,49.7598,75.5996017,18,75.5996017z"/>
		<path class="st6" d="M67.0313034,3.2124c-4.9747047-16.4766006-17.7784042-29.2777996-34.2471046-34.2450981L34.6348-37.1610985
			C53.1591988-31.5718002,67.5625-17.1704006,73.1563034,1.3623L67.0313034,3.2124z"/>
		<g>
			<path class="st6" d="M12.3984003,53.5996017c-0.4375,0-0.8813-0.0898018-1.3017006-0.2773018
				c-1.38869-0.6192017-2.1499195-2.1319008-1.8203297-3.6161995l4.7343302-21.3057003H-4.3999
				c-1.19873,0-2.2968802-0.6690006-2.8452201-1.7343998c-0.54883-1.0692997-0.45508-2.3506012,0.2402401-3.325201
				L20.9951-15.8593998c0.8896999-1.2422009,2.5235004-1.6826,3.9081993-1.0625
				c1.3906002,0.6187,2.1494007,2.1314001,1.8213005,3.6156998L21.9902,8h18.4101982
				c1.1992035,0,2.2969017,0.6704102,2.8467026,1.7358398c0.5467987,1.0659599,0.4530983,2.3486605-0.2442017,3.32376
				L15.0049,52.2598C14.3877001,53.1221008,13.4062996,53.5996017,12.3984003,53.5996017z M1.81885,22H18
				c0.9701996,0,1.8887005,0.4403992,2.4971008,1.1973c0.6063995,0.7588005,0.8368988,1.75,0.6258984,2.6963005
				l-2.1883984,9.8535004l15.2469978-21.3472004H18c-0.9701996,0-1.8892002-0.4404001-2.4970999-1.1982002
				c-0.6058998-0.7564001-0.8374004-1.7486-0.6264-2.6954002l2.188899-9.8529797L1.81885,22z"/>
		</g>
	</g>
</g>
</svg>
