<?xml version="1.0" encoding="utf-8"?>
<!-- Generator: Adobe Illustrator 19.2.1, SVG Export Plug-In . SVG Version: 6.00 Build 0)  -->
<svg version="1.1" xmlns="http://www.w3.org/2000/svg" xmlns:xlink="http://www.w3.org/1999/xlink" x="0px" y="0px"
	 viewBox="0 0 36 36" style="enable-background:new 0 0 36 36;" xml:space="preserve">
<style type="text/css">
	.st0{display:none;}
	.st1{display:inline;fill:none;stroke:#D1D3D4;stroke-width:0.25;stroke-miterlimit:10;}
	.st2{display:inline;fill:none;stroke:#D1D2D3;stroke-width:0.25;stroke-miterlimit:10;}
	.st3{display:inline;}
	.st4{display:inline;fill:#FFFFFF;}
	.st5{fill:#FFFFFF;}
	.st6{fill:#00B388;}
</style>
<g id="Grid_-_TURN_OFF" class="st0">
	<rect x="0.1" y="0.1" class="st1" width="35.8" height="35.8"/>
	<line class="st1" x1="35.9" y1="31.9" x2="0.1" y2="31.9"/>
	<line class="st1" x1="35.9" y1="27.9" x2="0.1" y2="27.9"/>
	<line class="st1" x1="35.9" y1="24" x2="0.1" y2="24"/>
	<line class="st1" x1="35.9" y1="20" x2="0.1" y2="20"/>
	<line class="st1" x1="35.9" y1="16" x2="0.1" y2="16"/>
	<line class="st1" x1="35.9" y1="12" x2="0.1" y2="12"/>
	<line class="st1" x1="35.9" y1="8.1" x2="0.1" y2="8.1"/>
	<line class="st1" x1="35.9" y1="4.1" x2="0.1" y2="4.1"/>
	<line class="st1" x1="4.1" y1="35.9" x2="4.1" y2="0.1"/>
	<line class="st1" x1="8.1" y1="35.9" x2="8.1" y2="0.1"/>
	<line class="st1" x1="12" y1="35.9" x2="12" y2="0.1"/>
	<line class="st1" x1="16" y1="35.9" x2="16" y2="0.1"/>
	<line class="st1" x1="20" y1="35.9" x2="20" y2="0.1"/>
	<line class="st1" x1="24" y1="35.9" x2="24" y2="0.1"/>
	<line class="st1" x1="27.9" y1="35.9" x2="27.9" y2="0.1"/>
	<line class="st1" x1="31.9" y1="35.9" x2="31.9" y2="0.1"/>
	<rect x="-39.6" y="-39.6" class="st2" width="115.2" height="115.2"/>
</g>
<g id="Title_-_TURN_OFF" class="st0">
	<rect x="-22.1" y="44.8" style="display:inline;fill:none;" width="80.1" height="18.6"/>
	<text transform="matrix(1 0 0 1 -5.2847 50.0278)" class="st3"><tspan x="0" y="0" style="font-family:'Metric-Regular'; font-size:8px;">Ene</tspan><tspan x="11.6" y="0" style="font-family:'Metric-Regular'; font-size:8px;">r</tspan><tspan x="14.1" y="0" style="font-family:'Metric-Regular'; font-size:8px;">gy s</tspan><tspan x="26.7" y="0" style="font-family:'Metric-Regular'; font-size:8px;">a</tspan><tspan x="30.2" y="0" style="font-family:'Metric-Regular'; font-size:8px;">vings</tspan></text>
</g>
<g id="white_bkgd_-_TURN_OFF" class="st0">
	<rect x="-17" y="-17" class="st4" width="70" height="70"/>
</g>
<g id="_x31__Color_Icon">
	<g>
		<path class="st5" d="M18,36C8.1,36,0,27.9,0,18C0,8.1,8.1,0,18,0v2C9.2,2,2,9.2,2,18c0,8.8,7.2,16,16,16c8.8,0,16-7.2,16-16h2
			C36,27.9,27.9,36,18,36z"/>
		<path class="st6" d="M33.3,13.4c-1.6-5.1-5.6-9.1-10.7-10.7l0.6-1.9c5.8,1.7,10.3,6.2,12,12L33.3,13.4z"/>
		<g>
			<path class="st6" d="M16.2,29.1c-0.1,0-0.3,0-0.4-0.1c-0.4-0.2-0.7-0.7-0.6-1.1l1.5-6.7H11c-0.4,0-0.7-0.2-0.9-0.5
				c-0.2-0.3-0.1-0.7,0.1-1l8.8-12.2c0.3-0.4,0.8-0.5,1.2-0.3c0.4,0.2,0.7,0.7,0.6,1.1l-1.5,6.7H25c0.4,0,0.7,0.2,0.9,0.5
				c0.2,0.3,0.1,0.7-0.1,1l-8.7,12.2C16.9,29,16.6,29.1,16.2,29.1z M12.9,19.2H18c0.3,0,0.6,0.1,0.8,0.4c0.2,0.2,0.3,0.5,0.2,0.8
				l-0.7,3.1l4.8-6.7H18c-0.3,0-0.6-0.1-0.8-0.4C17,16.3,17,16,17,15.7l0.7-3.1L12.9,19.2z"/>
		</g>
	</g>
</g>
<g id="_x32__Color_Icon" class="st0">
	<g class="st3">
		<path d="M18,36C8.1,36,0,27.9,0,18C0,8.1,8.1,0,18,0v2C9.2,2,2,9.2,2,18c0,8.8,7.2,16,16,16c8.8,0,16-7.2,16-16h2
			C36,27.9,27.9,36,18,36z"/>
		<path class="st6" d="M33.3,13.4c-1.6-5.1-5.6-9.1-10.7-10.7l0.6-1.9c5.8,1.7,10.3,6.2,12,12L33.3,13.4z"/>
		<g>
			<path class="st6" d="M16.2,29.1c-0.1,0-0.3,0-0.4-0.1c-0.4-0.2-0.7-0.7-0.6-1.1l1.5-6.7H11c-0.4,0-0.7-0.2-0.9-0.5
				c-0.2-0.3-0.1-0.7,0.1-1l8.8-12.2c0.3-0.4,0.8-0.5,1.2-0.3c0.4,0.2,0.7,0.7,0.6,1.1l-1.5,6.7H25c0.4,0,0.7,0.2,0.9,0.5
				c0.2,0.3,0.1,0.7-0.1,1l-8.7,12.2C16.9,29,16.6,29.1,16.2,29.1z M12.9,19.2H18c0.3,0,0.6,0.1,0.8,0.4c0.2,0.2,0.3,0.5,0.2,0.8
				l-0.7,3.1l4.8-6.7H18c-0.3,0-0.6-0.1-0.8-0.4C17,16.3,17,16,17,15.7l0.7-3.1L12.9,19.2z"/>
		</g>
	</g>
</g>
<g id="_x31_C_EMF_Icon" class="st0">
	<g class="st3">
		<path class="st5" d="M18,75.6c-31.8,0-57.6-25.8-57.6-57.6c0-31.8,25.8-57.6,57.6-57.6v6.4c-28.2,0-51.2,23-51.2,51.2
			s23,51.2,51.2,51.2s51.2-23,51.2-51.2h6.4C75.6,49.8,49.8,75.6,18,75.6z"/>
		<path class="st6" d="M67,3.2c-5-16.5-17.8-29.3-34.2-34.2l1.9-6.1c18.5,5.6,32.9,20,38.5,38.5L67,3.2z"/>
		<g>
			<path class="st6" d="M12.4,53.6c-0.4,0-0.9-0.1-1.3-0.3c-1.4-0.6-2.1-2.1-1.8-3.6L14,28.4H-4.4c-1.2,0-2.3-0.7-2.8-1.7
				c-0.5-1.1-0.5-2.4,0.2-3.3l28-39.2c0.9-1.2,2.5-1.7,3.9-1.1c1.4,0.6,2.1,2.1,1.8,3.6L22,8h18.4c1.2,0,2.3,0.7,2.8,1.7
				c0.5,1.1,0.5,2.3-0.2,3.3L15,52.3C14.4,53.1,13.4,53.6,12.4,53.6z M1.8,22H18c1,0,1.9,0.4,2.5,1.2c0.6,0.8,0.8,1.8,0.6,2.7
				l-2.2,9.9l15.2-21.3H18c-1,0-1.9-0.4-2.5-1.2c-0.6-0.8-0.8-1.7-0.6-2.7l2.2-9.9L1.8,22z"/>
		</g>
	</g>
</g>
<g id="_x32_C_EMF_Icon" class="st0">
	<g class="st3">
		<path d="M18,75.6c-31.8,0-57.6-25.8-57.6-57.6c0-31.8,25.8-57.6,57.6-57.6v6.4c-28.2,0-51.2,23-51.2,51.2s23,51.2,51.2,51.2
			s51.2-23,51.2-51.2h6.4C75.6,49.8,49.8,75.6,18,75.6z"/>
		<path class="st6" d="M67,3.2c-5-16.5-17.8-29.3-34.2-34.2l1.9-6.1c18.5,5.6,32.9,20,38.5,38.5L67,3.2z"/>
		<g>
			<path class="st6" d="M12.4,53.6c-0.4,0-0.9-0.1-1.3-0.3c-1.4-0.6-2.1-2.1-1.8-3.6L14,28.4H-4.4c-1.2,0-2.3-0.7-2.8-1.7
				c-0.5-1.1-0.5-2.4,0.2-3.3l28-39.2c0.9-1.2,2.5-1.7,3.9-1.1c1.4,0.6,2.1,2.1,1.8,3.6L22,8h18.4c1.2,0,2.3,0.7,2.8,1.7
				c0.5,1.1,0.5,2.3-0.2,3.3L15,52.3C14.4,53.1,13.4,53.6,12.4,53.6z M1.8,22H18c1,0,1.9,0.4,2.5,1.2c0.6,0.8,0.8,1.8,0.6,2.7
				l-2.2,9.9l15.2-21.3H18c-1,0-1.9-0.4-2.5-1.2c-0.6-0.8-0.8-1.7-0.6-2.7l2.2-9.9L1.8,22z"/>
		</g>
	</g>
</g>
</svg>
