<?xml version="1.0" encoding="utf-8"?>
<!-- Generator: Adobe Illustrator 16.0.0, SVG Export Plug-In . SVG Version: 6.00 Build 0)  -->
<!DOCTYPE svg PUBLIC "-//W3C//DTD SVG 1.1//EN" "http://www.w3.org/Graphics/SVG/1.1/DTD/svg11.dtd">
<svg version="1.1" id="special_logo_small" xmlns="http://www.w3.org/2000/svg" xmlns:xlink="http://www.w3.org/1999/xlink" x="0px"
	 y="0px" width="432px" height="288px" viewBox="0 0 432 288" enable-background="new 0 0 432 288" xml:space="preserve">
<g>
	<path id="element" fill="#00B388" d="M44.937,121.855v40.495l0,0h140.969v-40.495H44.937z M177.099,153.54H53.75v-22.87h123.349
		V153.54z"/>
	<path fill="#FFFFFF" d="M209.699,145.659v2.027h-8.25v5.1h7.502v1.975h-7.502v5.554h8.25v2.03h-10.572v-16.686H209.699z
		 M215.437,162.345h-2.269v-12.282h2.136v2.296c0.881-1.548,2.296-2.561,4.111-2.561c2.856,0,4.539,1.869,4.539,4.672v7.875h-2.269
		v-7.823c0-1.629-0.855-2.59-2.75-2.59c-1.629,0-3.018,1.095-3.499,2.564V162.345z M233.242,162.61c-3.07,0-4.298-1.335-4.298-3.764
		v-6.781h-2.59v-2.003h2.59v-3.177h2.269v3.177h3.498v2.003h-3.498v6.568c0,1.468,0.827,1.867,2.242,1.867
		c0.374,0,0.749-0.053,1.069-0.16h0.187v2.004C234.363,162.478,233.882,162.61,233.242,162.61z M243.226,162.61
		c-4.085,0-6.675-2.402-6.675-6.273c0-3.844,2.403-6.539,5.928-6.539c3.63,0,5.473,2.428,5.473,6.031v1.201h-9.052
		c0.32,2.402,2.031,3.525,4.352,3.525c1.443,0,2.537-0.241,3.604-1.016h0.241v1.951C246.003,162.317,244.587,162.61,243.226,162.61z
		 M238.927,155.242h6.809c-0.081-2.242-1.255-3.443-3.231-3.443C240.529,151.799,239.22,153.24,238.927,155.242z M257.879,152.386
		c-0.319-0.16-0.801-0.267-1.308-0.267c-1.442,0-2.589,1.015-3.069,2.67v7.556h-2.27v-12.282h2.136v2.645
		c0.721-2.002,2.029-2.83,3.496-2.83c0.535,0,1.015,0.079,1.203,0.186v2.323H257.879z M262.604,160.341v6.515h-2.271v-16.793h2.138
		v2.11c0.719-1.256,2.134-2.375,4.029-2.375c3.711,0,5.661,2.936,5.661,6.271c0,3.417-1.95,6.408-5.661,6.408
		C264.739,162.478,263.352,161.517,262.604,160.341z M269.839,156.069c0-2.481-1.388-4.138-3.871-4.138
		c-1.469,0-2.643,0.775-3.363,2.11v4.218c0.721,1.308,1.895,2.108,3.363,2.108C268.451,160.368,269.839,158.659,269.839,156.069z
		 M282.225,152.386c-0.32-0.16-0.801-0.267-1.308-0.267c-1.443,0-2.592,1.015-3.071,2.67v7.556h-2.269v-12.282h2.136v2.645
		c0.72-2.002,2.027-2.83,3.497-2.83c0.533,0,1.015,0.079,1.201,0.186v2.323H282.225z M286.094,148.836
		c-0.854,0-1.628-0.722-1.628-1.604c0-0.881,0.773-1.573,1.628-1.573c0.881,0,1.629,0.692,1.629,1.573
		C287.723,148.114,286.975,148.836,286.094,148.836z M287.215,162.345h-2.269v-12.282h2.269V162.345z M290.897,159.433h0.214
		c1.016,0.829,2.51,1.257,3.925,1.257c1.335,0,2.51-0.508,2.51-1.602c0-1.097-0.987-1.336-2.938-1.977
		c-1.734-0.588-3.683-1.2-3.683-3.523c0-2.431,1.974-3.79,4.511-3.79c1.441,0,2.724,0.292,3.79,1.013v2.082h-0.239
		c-0.962-0.72-2.109-1.174-3.524-1.174c-1.441,0-2.241,0.64-2.241,1.548c0,1.015,0.854,1.282,2.855,1.895
		c1.788,0.589,3.765,1.283,3.765,3.605c0,2.535-2.082,3.844-4.779,3.844c-1.628,0-3.256-0.4-4.165-1.119V159.433z M309.077,162.61
		c-4.085,0-6.674-2.402-6.674-6.273c0-3.844,2.402-6.539,5.927-6.539c3.631,0,5.474,2.428,5.474,6.031v1.201h-9.051
		c0.32,2.402,2.029,3.525,4.352,3.525c1.442,0,2.537-0.241,3.604-1.016h0.239v1.951C311.855,162.317,310.44,162.61,309.077,162.61z
		 M304.778,155.242h6.809c-0.08-2.242-1.254-3.443-3.229-3.443S305.073,153.24,304.778,155.242z M213.143,121.855v16.685h-3.63
		v-6.914h-6.754v6.914h-3.631v-16.685h3.631v6.593h6.754v-6.593H213.143z M222.993,138.834c-4.593,0-7.049-2.483-7.049-6.487
		c0-4.004,2.564-6.647,6.275-6.647c4.003,0,6.005,2.509,6.005,6.274v1.415h-8.543c0.268,2.055,1.895,2.589,3.499,2.589
		c1.441,0,2.562-0.187,3.738-0.827h0.4v2.616C226.25,138.54,224.541,138.834,222.993,138.834z M219.654,131.092h4.993
		c-0.106-1.869-0.907-2.696-2.376-2.696C221.017,128.396,219.896,128.983,219.654,131.092z M232.494,138.54l-2.617-12.12v-0.427
		h3.364l1.415,7.636l0.348,2.456l0.479-2.456l1.709-7.636h3.817l1.684,7.636l0.507,2.456l0.4-2.456l1.414-7.636h3.205v0.427
		l-2.645,12.12h-4.645l-1.494-6.701l-0.429-2.51l-0.428,2.51l-1.467,6.701H232.494z M254.623,138.834
		c-2.668,0-4.004-1.228-4.004-4.085v-12.894h3.632v12.653c0,0.881,0.372,1.175,1.226,1.175c0.269,0,0.696-0.08,0.962-0.16h0.054
		v3.017C256.093,138.674,255.318,138.834,254.623,138.834z M264.605,138.834c-4.591,0-7.048-2.483-7.048-6.487
		c0-4.004,2.565-6.647,6.275-6.647c4.004,0,6.006,2.509,6.006,6.274v1.415h-8.543c0.268,2.055,1.895,2.589,3.499,2.589
		c1.44,0,2.562-0.187,3.736-0.827h0.4v2.616C267.862,138.54,266.154,138.834,264.605,138.834z M261.27,131.092h4.992
		c-0.107-1.869-0.908-2.696-2.375-2.696C262.63,128.396,261.511,128.983,261.27,131.092z M282.144,133.975v-4.992h-5.312v4.832
		c0,1.281,0.428,1.869,1.629,1.869c0.348,0,0.802-0.107,1.042-0.213h0.346v2.989c-0.479,0.161-1.201,0.374-2.27,0.374
		c-3.07,0-4.378-1.468-4.378-4.859v-4.992h-2.163v-2.99h2.163v-3.044h3.631v3.044h5.312v-3.044h3.631v3.044h3.017v2.99h-3.017v4.832
		c0,1.281,0.427,1.869,1.628,1.869c0.349,0,0.803-0.107,1.043-0.213h0.346v2.989c-0.479,0.161-1.201,0.374-2.269,0.374
		C283.452,138.834,282.144,137.366,282.144,133.975z M299.467,133.388v5.152h-3.604v-16.685h6.488c3.685,0,6.113,2.028,6.113,5.793
		c0,3.71-2.429,5.74-6.113,5.74H299.467z M302.057,124.924h-2.59v5.393h2.59c1.843,0,2.725-1.094,2.725-2.669
		C304.781,126.02,303.899,124.924,302.057,124.924z M317.7,136.672c-0.748,1.388-2.11,2.002-3.792,2.002
		c-2.323,0-4.244-1.335-4.244-3.818s1.681-3.924,4.858-3.924c1.04,0,2.083,0.107,3.07,0.294v-0.721c0-1.335-0.936-1.922-2.804-1.922
		c-1.389,0-2.536,0.293-3.497,0.774h-0.401v-2.723c0.961-0.507,2.671-0.935,4.326-0.935c3.925,0,5.954,1.788,5.954,4.885v7.956
		H317.7V136.672z M317.593,134.615v-1.602c-0.615-0.187-1.415-0.24-2.056-0.24c-1.469,0-2.216,0.56-2.216,1.708
		c0,1.148,0.747,1.602,1.842,1.602C316.257,136.084,317.245,135.55,317.593,134.615z M323.837,132.293
		c0-4.059,2.857-6.594,6.568-6.594c1.521,0,2.695,0.347,3.496,0.881v3.15h-0.373c-0.774-0.587-1.629-0.854-2.724-0.854
		c-1.788,0-3.23,1.255-3.23,3.417c0,2.136,1.442,3.364,3.23,3.364c1.095,0,1.949-0.267,2.724-0.854h0.373v3.15
		c-0.801,0.534-1.975,0.881-3.496,0.881C326.694,138.834,323.837,136.324,323.837,132.293z M340.334,132.454v6.086h-3.631v-16.685
		h3.631v9.503l0.854-1.281l3.336-4.084h3.846v0.427l-4.646,5.259l4.646,6.434v0.427h-4.084l-3.098-4.592L340.334,132.454z
		 M357.257,136.672c-0.747,1.388-2.108,2.002-3.79,2.002c-2.322,0-4.245-1.335-4.245-3.818s1.683-3.924,4.86-3.924
		c1.04,0,2.08,0.107,3.068,0.294v-0.721c0-1.335-0.934-1.922-2.803-1.922c-1.388,0-2.536,0.293-3.497,0.774h-0.4v-2.723
		c0.961-0.507,2.668-0.935,4.323-0.935c3.927,0,5.955,1.788,5.955,4.885v7.956h-3.472V136.672z M357.15,134.615v-1.602
		c-0.614-0.187-1.415-0.24-2.056-0.24c-1.467,0-2.216,0.56-2.216,1.708c0,1.148,0.749,1.602,1.843,1.602
		C355.816,136.084,356.804,135.55,357.15,134.615z M367.508,128.529c0.667-1.869,2.082-2.67,3.523-2.67
		c0.481,0,0.881,0.134,1.04,0.214v3.444h-0.372c-0.375-0.188-0.748-0.294-1.256-0.294c-1.44,0-2.481,0.668-2.776,2.083v7.235h-3.63
		v-12.547h3.471V128.529z M382.562,136.778c-0.826,1.308-2.135,2.056-3.764,2.056c-3.418,0-5.527-2.75-5.527-6.541
		c0-3.817,2.109-6.594,5.527-6.594c1.522,0,2.776,0.667,3.605,1.815v-5.659h3.629v16.685h-3.471V136.778z M382.404,134.456v-4.378
		c-0.668-0.961-1.576-1.415-2.616-1.415c-1.655,0-2.778,1.281-2.778,3.63c0,2.322,1.123,3.577,2.778,3.577
		C380.828,135.87,381.736,135.417,382.404,134.456z"/>
</g>
</svg>
