<?xml version="1.0" encoding="utf-8"?>
<!-- Generator: Adobe Illustrator 19.0.1, SVG Export Plug-In . SVG Version: 6.00 Build 0)  -->
<svg version="1.1" xmlns="http://www.w3.org/2000/svg" xmlns:xlink="http://www.w3.org/1999/xlink" x="0px" y="0px"
	 viewBox="0 0 24 24" style="enable-background:new 0 0 24 24;" xml:space="preserve">
<style type="text/css">
	.st0{display:none;}
	.st1{display:inline;fill:#FFFFFF;}
	.st2{display:inline;}
	.st3{fill:#D1D3D4;}
	.st4{display:inline;fill:none;stroke:#D1D3D4;stroke-width:0.25;stroke-miterlimit:10;}
	.st5{fill:#FFFFFF;}
</style>
<g id="White_-_TURN_OFF" class="st0">
	<rect x="-18" y="-18" class="st1" width="60" height="60"/>
</g>
<g id="Grid_-_TURN_OFF" class="st0">
	<g class="st2">
		<path class="st3" d="M23.7744007,0.20508v23.5693207H0.20508V0.20508H23.7744007 M24.0244007-0.04492H-0.04492v24.0693207
			h24.0693207V-0.04492L24.0244007-0.04492z"/>
	</g>
	<line class="st4" x1="4" y1="23.8876991" x2="4" y2="0.1123"/>
	<line class="st4" x1="8" y1="23.8876991" x2="8" y2="0.1123"/>
	<line class="st4" x1="12" y1="23.8876991" x2="12" y2="0.1123"/>
	<line class="st4" x1="16" y1="23.8876991" x2="16" y2="0.1123"/>
	<line class="st4" x1="20" y1="23.8876991" x2="20" y2="0.1123"/>
	<line class="st4" x1="23.8876991" y1="20" x2="0.1123" y2="20"/>
	<line class="st4" x1="23.8876991" y1="16" x2="0.1123" y2="16"/>
	<line class="st4" x1="23.8876991" y1="12" x2="0.1123" y2="12"/>
	<line class="st4" x1="23.8876991" y1="8" x2="0.1123" y2="8"/>
	<line class="st4" x1="23.8876991" y1="4" x2="0.1123" y2="4"/>
</g>
<g id="Title_-_TURN_OFF" class="st0">
	<rect x="-19.7084999" y="38.8280983" style="display:inline;fill:none;" width="63.4165001" height="7.1718998"/>
	<text transform="matrix(1 0 0 1 -5.0878906 44.0278282)" class="st2"><tspan x="0" y="0" style="font-family:'Metric-Regular'; font-size:8px;">In p</tspan><tspan x="11.4960938" y="0" style="font-family:'Metric-Regular'; font-size:8px;">r</tspan><tspan x="13.9599609" y="0" style="font-family:'Metric-Regular'; font-size:8px;">o</tspan><tspan x="17.800293" y="0" style="font-family:'Metric-Regular'; font-size:8px;">g</tspan><tspan x="21.7924805" y="0" style="font-family:'Metric-Regular'; font-size:8px;">r</tspan><tspan x="24.2563477" y="0" style="font-family:'Metric-Regular'; font-size:8px;">e</tspan><tspan x="27.8886719" y="0" style="font-family:'Metric-Regular'; font-size:8px;">ss</tspan></text>
</g>
<g id="White_Icon" class="st0">
	<g class="st2">
		<path class="st5" d="M23,0H1v2h2.54492C1.9375,7.0258999,5.0683999,9.0107002,7.1982002,10.3607998
			C8.125,10.9482002,9,11.5024004,9,12c0,0.4849005-0.9267998,1.0644999-1.8223,1.6239996
			C5.0127001,14.9765997,1.83105,16.9647999,3.43555,22H1v2h22v-2h-2.5449009
			c1.6074009-5.0263996-1.5234985-7.0107002-3.6532993-8.3613005C15.875,13.0517998,15,12.4975996,15,12
			c0-0.4849005,0.9267998-1.0640001,1.8223-1.6239996C18.9873009,9.0234003,22.1688995,7.0346999,20.5645008,2H23V0z
			 M15.7627001,8.6801996C14.4042997,9.5288,13,10.4067001,13,12c0,1.5977001,1.3886995,2.4775,2.7305002,3.3281002
			C17.8729992,16.6865005,19.9013996,17.9727001,18.3349991,22h-1.3495998
			c0.0673008-1.1914005-0.5566998-1.6942997-2.254899-3.2803001C13.9502001,17.9902,12.96,17.1504002,12.0497999,15.9198999
			c-0.9091997,1.2305002-1.9198999,2.0400991-2.7002001,2.7598009C7.79,20.1182003,7.1113,20.9843998,7.0156002,22H5.5556998
			C3.9921899,17.9736004,6.0576,16.6826,8.2372999,15.3203001C9.5957003,14.4707003,11,13.5937996,11,12
			c0-1.5977001-1.3886995-2.4775-2.7305002-3.3285999C6.1269999,7.3140001,4.0985999,6.0278001,5.665,2h12.7792997
			C20.0077991,6.0268998,17.9424,7.3174,15.7627001,8.6801996z"/>
		<path class="st5" d="M9.4462996,6c-0.7138996,1.2598-0.6826,1.2754002,0.9189005,2.0741997
			C10.8319998,8.3076,11.4247999,8.6035004,11.9667997,9c0.5497999-0.3964996,1.1522999-0.6934004,1.625-0.9267998
			C15.2656002,7.25,15.2519999,7.2266002,14.5565996,6"/>
	</g>
</g>
<g id="Black_Icon">
	<g>
		<path d="M23,0H1v2h2.54492C1.9375,7.0258999,5.0683999,9.0107002,7.1982002,10.3607998C8.125,10.9482002,9,11.5024004,9,12
			c0,0.4849005-0.9267998,1.0644999-1.8223,1.6239996C5.0127001,14.9765997,1.83105,16.9647999,3.43555,22H1v2h22v-2h-2.5449009
			c1.6074009-5.0263996-1.5234985-7.0107002-3.6532993-8.3613005C15.875,13.0517998,15,12.4975996,15,12
			c0-0.4849005,0.9267998-1.0640001,1.8223-1.6239996C18.9873009,9.0234003,22.1688995,7.0346999,20.5645008,2H23V0z
			 M15.7627001,8.6801996C14.4042997,9.5288,13,10.4067001,13,12c0,1.5977001,1.3886995,2.4775,2.7305002,3.3281002
			C17.8729992,16.6865005,19.9013996,17.9727001,18.3349991,22h-1.3495998
			c0.0673008-1.1914005-0.5566998-1.6942997-2.254899-3.2803001C13.9502001,17.9902,12.96,17.1504002,12.0497999,15.9198999
			c-0.9091997,1.2305002-1.9198999,2.0400991-2.7002001,2.7598009C7.79,20.1182003,7.1113,20.9843998,7.0156002,22H5.5556998
			C3.9921899,17.9736004,6.0576,16.6826,8.2372999,15.3203001C9.5957003,14.4707003,11,13.5937996,11,12
			c0-1.5977001-1.3886995-2.4775-2.7305002-3.3285999C6.1269999,7.3140001,4.0985999,6.0278001,5.665,2h12.7792997
			C20.0077991,6.0268998,17.9424,7.3174,15.7627001,8.6801996z"/>
		<path d="M9.4462996,6c-0.7138996,1.2598-0.6826,1.2754002,0.9189005,2.0741997
			C10.8319998,8.3076,11.4247999,8.6035004,11.9667997,9c0.5497999-0.3964996,1.1522999-0.6934004,1.625-0.9267998
			C15.2656002,7.25,15.2519999,7.2266002,14.5565996,6"/>
	</g>
</g>
</svg>
