<?xml version="1.0" encoding="utf-8"?>
<!-- Generator: Adobe Illustrator 19.2.1, SVG Export Plug-In . SVG Version: 6.00 Build 0)  -->
<svg version="1.1" xmlns="http://www.w3.org/2000/svg" xmlns:xlink="http://www.w3.org/1999/xlink" x="0px" y="0px"
	 viewBox="0 0 36 36" style="enable-background:new 0 0 36 36;" xml:space="preserve">
<style type="text/css">
	.st0{display:none;}
	.st1{display:inline;fill:#FFFFFF;}
	.st2{display:inline;fill:none;stroke:#D1D3D4;stroke-width:0.25;stroke-miterlimit:10;}
	.st3{display:inline;fill:none;stroke:#D1D2D3;stroke-width:0.25;stroke-miterlimit:10;}
	.st4{display:inline;}
	.st5{fill:#FFFFFF;}
	.st6{fill:#00B388;}
</style>
<g id="white_bkgd_-_TURN_OFF" class="st0">
	<rect x="-17" y="-17" class="st1" width="70" height="70"/>
</g>
<g id="Grid_-_TURN_OFF" class="st0">
	<rect x="0.112305" y="0.112305" class="st2" width="35.7753944" height="35.7753944"/>
	<line class="st2" x1="35.8876991" y1="31.9120998" x2="0.112305" y2="31.9120998"/>
	<line class="st2" x1="35.8876991" y1="27.9375" x2="0.112305" y2="27.9375"/>
	<line class="st2" x1="35.8876991" y1="23.9629002" x2="0.112305" y2="23.9629002"/>
	<line class="st2" x1="35.8876991" y1="19.9873009" x2="0.112305" y2="19.9873009"/>
	<line class="st2" x1="35.8876991" y1="16.0126991" x2="0.112305" y2="16.0126991"/>
	<line class="st2" x1="35.8876991" y1="12.0375996" x2="0.112305" y2="12.0375996"/>
	<line class="st2" x1="35.8876991" y1="8.0625" x2="0.112305" y2="8.0625"/>
	<line class="st2" x1="35.8876991" y1="4.0874" x2="0.112305" y2="4.0874"/>
	<line class="st2" x1="4.0874" y1="35.8876991" x2="4.0874" y2="0.112305"/>
	<line class="st2" x1="8.0625" y1="35.8876991" x2="8.0625" y2="0.112305"/>
	<line class="st2" x1="12.0375996" y1="35.8876991" x2="12.0375996" y2="0.112305"/>
	<line class="st2" x1="16.0126991" y1="35.8876991" x2="16.0126991" y2="0.112305"/>
	<line class="st2" x1="19.9873009" y1="35.8876991" x2="19.9873009" y2="0.112305"/>
	<line class="st2" x1="23.9629002" y1="35.8876991" x2="23.9629002" y2="0.112305"/>
	<line class="st2" x1="27.9375" y1="35.8876991" x2="27.9375" y2="0.112305"/>
	<line class="st2" x1="31.9120998" y1="35.8876991" x2="31.9120998" y2="0.112305"/>
	<rect x="-39.6001015" y="-39.6001015" class="st3" width="115.1996994" height="115.1996994"/>
</g>
<g id="Title_-_TURN_OFF" class="st0">
	<rect x="-13.7084999" y="44.8280983" style="display:inline;fill:none;" width="63.4165001" height="7.5907998"/>
	<text transform="matrix(1 0 0 1 -2.9838867 50.0288048)" class="st4"><tspan x="0" y="0" style="font-family:'Metric-Regular'; font-size:8px;">Inf</tspan><tspan x="8.0239258" y="0" style="font-family:'Metric-Regular'; font-size:8px;">r</tspan><tspan x="10.4960938" y="0" style="font-family:'Metric-Regular'; font-size:8px;">a</tspan><tspan x="14.0800781" y="0" style="font-family:'Metric-Regular'; font-size:8px;">s</tspan><tspan x="17.2001953" y="0" style="font-family:'Metric-Regular'; font-size:8px;">tru</tspan><tspan x="26.2080078" y="0" style="font-family:'Metric-Regular'; font-size:8px;">c</tspan><tspan x="29.4633789" y="0" style="font-family:'Metric-Regular'; font-size:8px;">tu</tspan><tspan x="35.9033203" y="0" style="font-family:'Metric-Regular'; font-size:8px;">r</tspan><tspan x="38.3671875" y="0" style="font-family:'Metric-Regular'; font-size:8px;">e</tspan></text>
</g>
<g id="_x31__Color_Icon" class="st0">
	<g class="st4">
		<g>
			<path class="st5" d="M18,0c-1.9297009,0-3.5,1.57031-3.5,3.5c0,1.58008,1.0595999,2.9033198,2.5,3.3369098V9h2V6.8369098
				C20.4403992,6.4033198,21.5,5.08008,21.5,3.5C21.5,1.57031,19.9297009,0,18,0z M18,5c-0.8271008,0-1.5-0.6728501-1.5-1.5
				S17.1728992,2,18,2s1.5,0.6728499,1.5,1.5S18.8271008,5,18,5z"/>
			<path class="st5" d="M19,29.1630993V27h-2v2.1630993C15.5595999,29.5967007,14.5,30.9199009,14.5,32.5
				c0,1.9296989,1.5702991,3.5,3.5,3.5s3.5-1.5703011,3.5-3.5C21.5,30.9199009,20.4403992,29.5967007,19,29.1630993z M18,34
				c-0.8271008,0-1.5-0.6729012-1.5-1.5c0-0.8271008,0.6728992-1.5,1.5-1.5s1.5,0.6728992,1.5,1.5
				C19.5,33.3270988,18.8271008,34,18,34z"/>
			<path class="st5" d="M27.1602001,13.8656998l2.7304001-1.5766001C30.5321999,12.8940001,31.3887005,13.25,32.2938995,13.25
				c0.6104012,0,1.2139015-0.1616001,1.7461014-0.4682999c0.8096008-0.4672003,1.3886986-1.2221003,1.6308975-2.1259003
				C35.9121017,9.7524405,35.7881012,8.8085899,35.3203011,8C34.6973,6.9208999,33.5351982,6.2504902,32.2871017,6.2504902
				c-0.6113014,0-1.2158012,0.1626-1.7461014,0.46875c-0.8096008,0.46631-1.3887005,1.2206998-1.6308002,2.1240196
				c-0.152401,0.5693398-0.1436005,1.1518602-0.0107994,1.7089405l-2.7392006,1.5815992L27.1602001,13.8656998z M30.8418007,9.36133
				c0.1034985-0.3867197,0.3515987-0.7094698,0.6982002-0.9096699c0.2285995-0.1313505,0.4864006-0.20117,0.7471008-0.20117
				c0.5360985,0,1.0341988,0.2871094,1.3017998,0.75c0.2001991,0.3466797,0.2538986,0.7509699,0.1493988,1.1382093
				c-0.1035004,0.3872004-0.3516006,0.7109003-0.6973,0.9106007c-0.6982002,0.4013996-1.6522999,0.1386995-2.0498009-0.5513
				C30.7910004,10.1522999,30.7383003,9.7485399,30.8418007,9.36133z"/>
			<path class="st5" d="M8.8398399,22.1338005l-2.7304602,1.5761986C5.4677701,23.1054993,4.6118202,22.75,3.7084999,22.75
				c-0.6113298,0-1.2158198,0.1630993-1.7475599,0.4696999c-0.80957,0.4668007-1.389163,1.2217007-1.63135,2.125
				C0.087891,26.2479992,0.211426,27.1903992,0.678223,28C1.30176,29.0800991,2.4648399,29.7509995,3.71387,29.7509995
				c0.6118097,0,1.2158198-0.1620998,1.7465801-0.4687996c1.3676796-0.789999,1.9838901-2.3691006,1.6391597-3.8339996
				l2.7402301-1.5820007L8.8398399,22.1338005z M4.45996,27.5498009C3.7641599,27.9521008,2.80762,27.6875,2.41064,27
				c-0.1997001-0.3467007-0.2529299-0.75-0.1489201-1.1376991c0.1035101-0.3867016,0.3515601-0.710001,0.69873-0.9102001
				C3.1889601,24.8202991,3.4477501,24.75,3.7084999,24.75c0.5351501,0,1.03369,0.2880993,1.3007803,0.7490005
				C5.4223599,26.2168007,5.17627,27.1366997,4.45996,27.5498009z"/>
			<path class="st5" d="M35.6708984,25.3446999c-0.2421989-0.9032993-0.8223-1.6581993-1.6317978-2.125
				c-0.5303001-0.3066006-1.1348-0.4687004-1.7461014-0.4687004c-0.9042988,0-1.7607994,0.3554001-2.4013996,0.9598999
				l-2.7304993-1.5770988l-1,1.732399l2.7383003,1.5820007c-0.1328011,0.5576992-0.142601,1.1387005,0.0098,1.7080994
				c0.2411995,0.9033012,0.8202991,1.6582012,1.6308002,2.1259003c0.5312996,0.3066998,1.1357994,0.4687996,1.7471008,0.4687996
				c1.25,0,2.4130974-0.6718998,3.0341988-1.7509995C35.7881012,27.1914005,35.9131012,26.2479992,35.6708984,25.3446999z
				 M33.5878983,27.0009995c-0.3954964,0.6885014-1.3544998,0.9511013-2.0487976,0.5488014
				c-0.3467007-0.200201-0.5948009-0.5234013-0.6983013-0.9102001c-0.102499-0.3867016-0.049799-0.7910004,0.1514015-1.1375999
				c0.2675991-0.4639015,0.7655983-0.7510014,1.3007984-0.7510014c0.2607002,0,0.5185013,0.0692997,0.7470016,0.2011013
				c0.3466988,0.2001991,0.594799,0.5234985,0.6992989,0.9111996C33.8428001,26.25,33.7891006,26.6532993,33.5878983,27.0009995z"/>
			<path class="st5" d="M7.0927701,8.8461905C6.8505902,7.9418898,6.2705102,7.1865201,5.45996,6.71875
				C4.9282198,6.4121099,4.3242202,6.25,3.7128899,6.25c-1.24756,0-2.4096699,0.66992-3.034179,1.7495098
				c-0.964356,1.6728506-0.389648,3.8183899,1.281739,4.78269c0.5312499,0.3066998,1.13525,0.4688005,1.7460901,0.4688005
				c0.9047899,0,1.7617197-0.3565006,2.40381-0.9614l2.7304702,1.5766001l1-1.7324009L7.10254,10.5527
				C7.2353501,9.9960899,7.24512,9.41504,7.0927701,8.8461905z M5.0097699,10.4989996
				C4.6127901,11.1890001,3.65576,11.4511995,2.95996,11.0497999C2.24365,10.6366997,1.99756,9.7163095,2.41064,9
				c0.26758-0.4628897,0.7666099-0.75,1.3022499-0.75c0.26074,0,0.5195301,0.0693398,0.7475603,0.20117
				c0.3476601,0.2006903,0.5966797,0.5244198,0.7001896,0.9121103C5.2641602,9.7490196,5.2104502,10.1522999,5.0097699,10.4989996z"
				/>
		</g>
		<path class="st6" d="M18.0009995,9.6323204l-6.999999,4.2021799v8.3315001l6.999999,4.2001991l7-4.2001991v-8.3315001
			L18.0009995,9.6323204z M22.0576,14.4004002l-4.0566006,2.4335995l-4.0566998-2.4335995l4.0566998-2.4351006L22.0576,14.4004002z
			 M13.0010004,16.1665001l3.999999,2.3994007v4.8676987l-3.999999-2.4004002V16.1665001z M19.0009995,23.4335995v-4.8676987
			l4-2.3994007v4.8666992L19.0009995,23.4335995z"/>
	</g>
</g>
<g id="_x32__Color_Icon">
	<g>
		<g>
			<path d="M18,0c-1.9297009,0-3.5,1.57031-3.5,3.5c0,1.58008,1.0595999,2.9033198,2.5,3.3369098V9h2V6.8369098
				C20.4403992,6.4033198,21.5,5.08008,21.5,3.5C21.5,1.57031,19.9297009,0,18,0z M18,5c-0.8271008,0-1.5-0.6728501-1.5-1.5
				S17.1728992,2,18,2s1.5,0.6728499,1.5,1.5S18.8271008,5,18,5z"/>
			<path d="M19,29.1630993V27h-2v2.1630993C15.5595999,29.5967007,14.5,30.9199009,14.5,32.5c0,1.9296989,1.5702991,3.5,3.5,3.5
				s3.5-1.5703011,3.5-3.5C21.5,30.9199009,20.4403992,29.5967007,19,29.1630993z M18,34c-0.8271008,0-1.5-0.6729012-1.5-1.5
				c0-0.8271008,0.6728992-1.5,1.5-1.5s1.5,0.6728992,1.5,1.5C19.5,33.3270988,18.8271008,34,18,34z"/>
			<path d="M27.1602001,13.8656998l2.7304001-1.5766001C30.5321999,12.8940001,31.3887005,13.25,32.2938995,13.25
				c0.6104012,0,1.2139015-0.1616001,1.7461014-0.4682999c0.8096008-0.4672003,1.3886986-1.2221003,1.6308975-2.1259003
				C35.9121017,9.7524405,35.7881012,8.8085899,35.3203011,8C34.6973,6.9208999,33.5351982,6.2504902,32.2871017,6.2504902
				c-0.6113014,0-1.2158012,0.1626-1.7461014,0.46875c-0.8096008,0.46631-1.3887005,1.2206998-1.6308002,2.1240196
				c-0.152401,0.5693398-0.1436005,1.1518602-0.0107994,1.7089405l-2.7392006,1.5815992L27.1602001,13.8656998z M30.8418007,9.36133
				c0.1034985-0.3867197,0.3515987-0.7094698,0.6982002-0.9096699c0.2285995-0.1313505,0.4864006-0.20117,0.7471008-0.20117
				c0.5360985,0,1.0341988,0.2871094,1.3017998,0.75c0.2001991,0.3466797,0.2538986,0.7509699,0.1493988,1.1382093
				c-0.1035004,0.3872004-0.3516006,0.7109003-0.6973,0.9106007c-0.6982002,0.4013996-1.6522999,0.1386995-2.0498009-0.5513
				C30.7910004,10.1522999,30.7383003,9.7485399,30.8418007,9.36133z"/>
			<path d="M8.8398399,22.1338005l-2.7304602,1.5761986C5.4677701,23.1054993,4.6118202,22.75,3.7084999,22.75
				c-0.6113298,0-1.2158198,0.1630993-1.7475599,0.4696999c-0.80957,0.4668007-1.389163,1.2217007-1.63135,2.125
				C0.087891,26.2479992,0.211426,27.1903992,0.678223,28C1.30176,29.0800991,2.4648399,29.7509995,3.71387,29.7509995
				c0.6118097,0,1.2158198-0.1620998,1.7465801-0.4687996c1.3676796-0.789999,1.9838901-2.3691006,1.6391597-3.8339996
				l2.7402301-1.5820007L8.8398399,22.1338005z M4.45996,27.5498009C3.7641599,27.9521008,2.80762,27.6875,2.41064,27
				c-0.1997001-0.3467007-0.2529299-0.75-0.1489201-1.1376991c0.1035101-0.3867016,0.3515601-0.710001,0.69873-0.9102001
				C3.1889601,24.8202991,3.4477501,24.75,3.7084999,24.75c0.5351501,0,1.03369,0.2880993,1.3007803,0.7490005
				C5.4223599,26.2168007,5.17627,27.1366997,4.45996,27.5498009z"/>
			<path d="M35.6708984,25.3446999c-0.2421989-0.9032993-0.8223-1.6581993-1.6317978-2.125
				c-0.5303001-0.3066006-1.1348-0.4687004-1.7461014-0.4687004c-0.9042988,0-1.7607994,0.3554001-2.4013996,0.9598999
				l-2.7304993-1.5770988l-1,1.732399l2.7383003,1.5820007c-0.1328011,0.5576992-0.142601,1.1387005,0.0098,1.7080994
				c0.2411995,0.9033012,0.8202991,1.6582012,1.6308002,2.1259003c0.5312996,0.3066998,1.1357994,0.4687996,1.7471008,0.4687996
				c1.25,0,2.4130974-0.6718998,3.0341988-1.7509995C35.7881012,27.1914005,35.9131012,26.2479992,35.6708984,25.3446999z
				 M33.5878983,27.0009995c-0.3954964,0.6885014-1.3544998,0.9511013-2.0487976,0.5488014
				c-0.3467007-0.200201-0.5948009-0.5234013-0.6983013-0.9102001c-0.102499-0.3867016-0.049799-0.7910004,0.1514015-1.1375999
				c0.2675991-0.4639015,0.7655983-0.7510014,1.3007984-0.7510014c0.2607002,0,0.5185013,0.0692997,0.7470016,0.2011013
				c0.3466988,0.2001991,0.594799,0.5234985,0.6992989,0.9111996C33.8428001,26.25,33.7891006,26.6532993,33.5878983,27.0009995z"/>
			<path d="M7.0927701,8.8461905C6.8505902,7.9418898,6.2705102,7.1865201,5.45996,6.71875
				C4.9282198,6.4121099,4.3242202,6.25,3.7128899,6.25c-1.24756,0-2.4096699,0.66992-3.034179,1.7495098
				c-0.964356,1.6728506-0.389648,3.8183899,1.281739,4.78269c0.5312499,0.3066998,1.13525,0.4688005,1.7460901,0.4688005
				c0.9047899,0,1.7617197-0.3565006,2.40381-0.9614l2.7304702,1.5766001l1-1.7324009L7.10254,10.5527
				C7.2353501,9.9960899,7.24512,9.41504,7.0927701,8.8461905z M5.0097699,10.4989996
				C4.6127901,11.1890001,3.65576,11.4511995,2.95996,11.0497999C2.24365,10.6366997,1.99756,9.7163095,2.41064,9
				c0.26758-0.4628897,0.7666099-0.75,1.3022499-0.75c0.26074,0,0.5195301,0.0693398,0.7475603,0.20117
				c0.3476601,0.2006903,0.5966797,0.5244198,0.7001896,0.9121103C5.2641602,9.7490196,5.2104502,10.1522999,5.0097699,10.4989996z"
				/>
		</g>
		<path class="st6" d="M18.0009995,9.6323204l-6.999999,4.2021799v8.3315001l6.999999,4.2001991l7-4.2001991v-8.3315001
			L18.0009995,9.6323204z M22.0576,14.4004002l-4.0566006,2.4335995l-4.0566998-2.4335995l4.0566998-2.4351006L22.0576,14.4004002z
			 M13.0010004,16.1665001l3.999999,2.3994007v4.8676987l-3.999999-2.4004002V16.1665001z M19.0009995,23.4335995v-4.8676987
			l4-2.3994007v4.8666992L19.0009995,23.4335995z"/>
	</g>
</g>
<g id="_x31_C_EMF_Icon" class="st0">
	<g class="st4">
		<g>
			<path class="st5" d="M17.9995003-39.6001015c-6.1747999,0-11.1997004,5.0249023-11.1997004,11.200201
				c0,5.0561008,3.3906002,9.2905006,8,10.6781998v6.9219007h6.3993998v-6.9219007c4.6093998-1.3876991,8-5.6220989,8-10.6781998
				C29.1991997-34.5751991,24.1748009-39.6001015,17.9995003-39.6001015z M17.9995003-23.6000996
				c-2.6465006,0-4.7997999-2.1527996-4.7997999-4.7998009s2.1532993-4.8002987,4.7997999-4.8002987
				c2.6469994,0,4.8003006,2.1532993,4.8003006,4.8002987S20.6464996-23.6000996,17.9995003-23.6000996z"/>
			<path class="st5" d="M21.1991997,53.7216988v-6.9218979h-6.3993998v6.9218979c-4.6093998,1.3877029-8,5.6221008-8,10.6786995
				c0,6.1748047,5.0249004,11.1992035,11.1997004,11.1992035c6.1753006,0,11.1996994-5.0243988,11.1996994-11.1992035
				C29.1991997,59.3437996,25.8085995,55.1094017,21.1991997,53.7216988z M17.9995003,69.2002029
				c-2.6465006,0-4.7997999-2.1533051-4.7997999-4.7998047c0-2.6474991,2.1532993-4.8007965,4.7997999-4.8007965
				c2.6469994,0,4.8003006,2.1532974,4.8003006,4.8007965C22.7998009,67.0468979,20.6464996,69.2002029,17.9995003,69.2002029z"/>
			<path class="st5" d="M47.3125,4.7705102l8.7373009-5.0454121c2.0527,1.9360319,4.7939987,3.0747018,7.6903992,3.0747018
				c1.9531975,0,3.8848-0.5170898,5.5879021-1.49804c2.5898972-1.495608,4.4433975-3.91114,5.2187958-6.8032198
				c0.7714996-2.8906298,0.375-5.9111395-1.1221008-8.4985399c-1.9940948-3.4531002-5.7128983-5.5986004-9.7059975-5.5986004
				c-1.9570999,0-3.8907013,0.5205002-5.5878983,1.5C55.5400009-16.6063995,53.6875-14.1924,52.9121017-11.3017998
				c-0.4873009,1.8223095-0.4590034,3.68608-0.0342026,5.4687896L44.1123009-0.771973L47.3125,4.7705102z M59.0937996-9.6435499
				c0.3310013-1.2377501,1.125-2.2705498,2.2342987-2.91115c0.7305031-0.4203997,1.5557022-0.6435003,2.3907013-0.6435003
				c1.7148018,0,3.3084984,0.9183998,4.1649971,2.3999004c0.6406021,1.1093397,0.8125,2.4027901,0.4785004,3.6420498
				c-0.3309937,1.2392602-1.125,2.2749-2.2313995,2.9140601C63.8964996-2.95801,60.8437996-3.7983401,59.5713005-6.00635
				C58.9306984-7.1122999,58.7616997-8.4047899,59.0937996-9.6435499z"/>
			<path class="st5" d="M-11.3129997,31.2285004l-8.7373009,5.0429993c-2.0531998-1.9336014-4.7919998-3.0713005-7.6826-3.0713005
				c-1.9566002,0-3.8906002,0.5214996-5.5922985,1.5028992c-2.5908012,1.4942017-4.4453011,3.9092026-5.2201996,6.7998009
				c-0.7734032,2.8907013-0.3784027,5.9062996,1.1152,8.4971008c1.9955978,3.4561005,5.7172985,5.6035004,9.7143993,5.6035004
				c1.9574986,0,3.8906002-0.5195007,5.5887985-1.5c4.3765011-2.5283012,6.3487005-7.5820007,5.2457008-12.2695007l8.7685099-5.0625
				L-11.3129997,31.2285004z M-25.3285999,48.5596008c-2.2266006,1.2870979-5.2870998,0.4403992-6.5576-1.7598
				c-0.6391983-1.1094017-0.8096008-2.3994026-0.4766006-3.6406021c0.3311005-1.2372971,1.125-2.2714996,2.2357998-2.9120979
				c0.7315006-0.4219017,1.5596008-0.6474991,2.3941002-0.6474991c1.7124004,0,3.3076,0.9218979,4.1620998,2.3974991
				C-22.2485008,44.2938995-23.0361004,47.2373009-25.3285999,48.5596008z"/>
			<path class="st5" d="M74.5468979,41.5028992c-0.7753983-2.8905983-2.631897-5.3055992-5.2226944-6.7998009
				c-1.6963043-0.9813995-3.630806-1.5-5.5869026-1.5c-2.8935013,0-5.6348,1.1377029-7.6846008,3.0723l-8.7373009-5.0468979
				L44.1152,36.7714996l8.7626991,5.0625c-0.4248009,1.785099-0.4559975,3.6445007,0.0312996,5.4658012
				c0.7714996,2.8905983,2.625,5.3065987,5.2187004,6.8036995c1.7001991,0.9804993,3.6338005,1.5,5.5909004,1.5
				c4.0000038,0,7.7215996-2.1504021,9.7088966-5.6035004C74.9218979,47.4121017,75.3212967,44.3936005,74.5468979,41.5028992z
				 M67.8808975,46.8027c-1.2657013,2.2032013-4.3339958,3.0439987-6.5566978,1.7569008
				c-1.1093979-0.6407013-1.902298-1.6748009-2.2343979-2.9131012c-0.3281021-1.2373009-0.1591034-2.5312996,0.4843979-3.6405983
				c0.8564987-1.4844017,2.4501991-2.402401,4.1631012-2.402401c0.8339958,0,1.6591988,0.2216988,2.3905983,0.6436005
				c1.1093979,0.6405983,1.9034042,1.6748009,2.2372971,2.9150009C68.6962967,44.4003983,68.5243988,45.6903992,67.8808975,46.8027z
				"/>
			<path class="st5" d="M-16.9032993-11.2919998c-0.7749004-2.8940001-2.6314011-5.3110008-5.2251015-6.8080997
				c-1.7016983-0.9810009-3.6342983-1.5-5.5907993-1.5c-3.9921989,0-7.7109985,2.1439991-9.7089996,5.5985994
				C-40.5141983-8.6484404-38.6753006-1.78271-33.3266983,1.30322c1.6996975,0.9809599,3.6328983,1.5,5.5873985,1.5
				c2.8950996,0,5.6371994-1.14062,7.6919003-3.076658l8.7377996,5.0454078l3.1997395-5.5439429l-8.7622404-5.0590768
				C-16.4473-7.6122999-16.4160004-9.4716797-16.9032993-11.2919998z M-23.5688-6.0029302
				c-1.2705994,2.2075202-4.3330994,3.0468802-6.5596008,1.7622104C-32.4203987-5.5625-33.2080002-8.5078096-31.8862-10.7997999
				c0.8563995-1.4814997,2.4531002-2.4004002,4.1669998-2.4004002c0.8344002,0,1.6625996,0.2222004,2.3924999,0.6440001
				c1.1123009,0.6421003,1.9092007,1.6782999,2.2403011,2.9184999C-22.7549-8.4033203-22.9267998-7.1122999-23.5688-6.0029302z"/>
		</g>
		<path class="st6" d="M18.0028992-8.77637L-4.3969698,4.6704102v26.6606903l22.399868,13.4403992l22.3994026-13.4403992V4.6704102
			L18.0028992-8.77637z M30.9843998,6.4814501l-12.9815006,7.7871504L5.0214801,6.4814501l12.9814186-7.79249L30.9843998,6.4814501z
			 M2.0029299,12.1328001L14.8027,19.8104992v15.5771999L2.0029299,27.7061005V12.1328001z M21.2031002,35.3876991V19.8104992
			l12.799799-7.6776991v15.5733004L21.2031002,35.3876991z"/>
	</g>
</g>
<g id="_x32_C_EMF_Icon" class="st0">
	<g class="st4">
		<g>
			<path d="M17.9995003-39.6001015c-6.1747999,0-11.1997004,5.0249023-11.1997004,11.200201
				c0,5.0561008,3.3906002,9.2905006,8,10.6781998v6.9219007h6.3993998v-6.9219007c4.6093998-1.3876991,8-5.6220989,8-10.6781998
				C29.1991997-34.5751991,24.1748009-39.6001015,17.9995003-39.6001015z M17.9995003-23.6000996
				c-2.6465006,0-4.7997999-2.1527996-4.7997999-4.7998009s2.1532993-4.8002987,4.7997999-4.8002987
				c2.6469994,0,4.8003006,2.1532993,4.8003006,4.8002987S20.6464996-23.6000996,17.9995003-23.6000996z"/>
			<path d="M21.1991997,53.7216988v-6.9218979h-6.3993998v6.9218979c-4.6093998,1.3877029-8,5.6221008-8,10.6786995
				c0,6.1748047,5.0249004,11.1992035,11.1997004,11.1992035c6.1753006,0,11.1996994-5.0243988,11.1996994-11.1992035
				C29.1991997,59.3437996,25.8085995,55.1094017,21.1991997,53.7216988z M17.9995003,69.2002029
				c-2.6465006,0-4.7997999-2.1533051-4.7997999-4.7998047c0-2.6474991,2.1532993-4.8007965,4.7997999-4.8007965
				c2.6469994,0,4.8003006,2.1532974,4.8003006,4.8007965C22.7998009,67.0468979,20.6464996,69.2002029,17.9995003,69.2002029z"/>
			<path d="M47.3125,4.7705102l8.7373009-5.0454121c2.0527,1.9360319,4.7939987,3.0747018,7.6903992,3.0747018
				c1.9531975,0,3.8848-0.5170898,5.5879021-1.49804c2.5898972-1.495608,4.4433975-3.91114,5.2187958-6.8032198
				c0.7714996-2.8906298,0.375-5.9111395-1.1221008-8.4985399c-1.9940948-3.4531002-5.7128983-5.5986004-9.7059975-5.5986004
				c-1.9570999,0-3.8907013,0.5205002-5.5878983,1.5C55.5400009-16.6063995,53.6875-14.1924,52.9121017-11.3017998
				c-0.4873009,1.8223095-0.4590034,3.68608-0.0342026,5.4687896L44.1123009-0.771973L47.3125,4.7705102z M59.0937996-9.6435499
				c0.3310013-1.2377501,1.125-2.2705498,2.2342987-2.91115c0.7305031-0.4203997,1.5557022-0.6435003,2.3907013-0.6435003
				c1.7148018,0,3.3084984,0.9183998,4.1649971,2.3999004c0.6406021,1.1093397,0.8125,2.4027901,0.4785004,3.6420498
				c-0.3309937,1.2392602-1.125,2.2749-2.2313995,2.9140601C63.8964996-2.95801,60.8437996-3.7983401,59.5713005-6.00635
				C58.9306984-7.1122999,58.7616997-8.4047899,59.0937996-9.6435499z"/>
			<path d="M-11.3129997,31.2285004l-8.7373009,5.0429993c-2.0531998-1.9336014-4.7919998-3.0713005-7.6826-3.0713005
				c-1.9566002,0-3.8906002,0.5214996-5.5922985,1.5028992c-2.5908012,1.4942017-4.4453011,3.9092026-5.2201996,6.7998009
				c-0.7734032,2.8907013-0.3784027,5.9062996,1.1152,8.4971008c1.9955978,3.4561005,5.7172985,5.6035004,9.7143993,5.6035004
				c1.9574986,0,3.8906002-0.5195007,5.5887985-1.5c4.3765011-2.5283012,6.3487005-7.5820007,5.2457008-12.2695007l8.7685099-5.0625
				L-11.3129997,31.2285004z M-25.3285999,48.5596008c-2.2266006,1.2870979-5.2870998,0.4403992-6.5576-1.7598
				c-0.6391983-1.1094017-0.8096008-2.3994026-0.4766006-3.6406021c0.3311005-1.2372971,1.125-2.2714996,2.2357998-2.9120979
				c0.7315006-0.4219017,1.5596008-0.6474991,2.3941002-0.6474991c1.7124004,0,3.3076,0.9218979,4.1620998,2.3974991
				C-22.2485008,44.2938995-23.0361004,47.2373009-25.3285999,48.5596008z"/>
			<path d="M74.5468979,41.5028992c-0.7753983-2.8905983-2.631897-5.3055992-5.2226944-6.7998009
				c-1.6963043-0.9813995-3.630806-1.5-5.5869026-1.5c-2.8935013,0-5.6348,1.1377029-7.6846008,3.0723l-8.7373009-5.0468979
				L44.1152,36.7714996l8.7626991,5.0625c-0.4248009,1.785099-0.4559975,3.6445007,0.0312996,5.4658012
				c0.7714996,2.8905983,2.625,5.3065987,5.2187004,6.8036995c1.7001991,0.9804993,3.6338005,1.5,5.5909004,1.5
				c4.0000038,0,7.7215996-2.1504021,9.7088966-5.6035004C74.9218979,47.4121017,75.3212967,44.3936005,74.5468979,41.5028992z
				 M67.8808975,46.8027c-1.2657013,2.2032013-4.3339958,3.0439987-6.5566978,1.7569008
				c-1.1093979-0.6407013-1.902298-1.6748009-2.2343979-2.9131012c-0.3281021-1.2373009-0.1591034-2.5312996,0.4843979-3.6405983
				c0.8564987-1.4844017,2.4501991-2.402401,4.1631012-2.402401c0.8339958,0,1.6591988,0.2216988,2.3905983,0.6436005
				c1.1093979,0.6405983,1.9034042,1.6748009,2.2372971,2.9150009C68.6962967,44.4003983,68.5243988,45.6903992,67.8808975,46.8027z
				"/>
			<path d="M-16.9032993-11.2919998c-0.7749004-2.8940001-2.6314011-5.3110008-5.2251015-6.8080997
				c-1.7016983-0.9810009-3.6342983-1.5-5.5907993-1.5c-3.9921989,0-7.7109985,2.1439991-9.7089996,5.5985994
				C-40.5141983-8.6484404-38.6753006-1.78271-33.3266983,1.30322c1.6996975,0.9809599,3.6328983,1.5,5.5873985,1.5
				c2.8950996,0,5.6371994-1.14062,7.6919003-3.076658l8.7377996,5.0454078l3.1997395-5.5439429l-8.7622404-5.0590768
				C-16.4473-7.6122999-16.4160004-9.4716797-16.9032993-11.2919998z M-23.5688-6.0029302
				c-1.2705994,2.2075202-4.3330994,3.0468802-6.5596008,1.7622104C-32.4203987-5.5625-33.2080002-8.5078096-31.8862-10.7997999
				c0.8563995-1.4814997,2.4531002-2.4004002,4.1669998-2.4004002c0.8344002,0,1.6625996,0.2222004,2.3924999,0.6440001
				c1.1123009,0.6421003,1.9092007,1.6782999,2.2403011,2.9184999C-22.7549-8.4033203-22.9267998-7.1122999-23.5688-6.0029302z"/>
		</g>
		<path class="st6" d="M18.0028992-8.77637L-4.3969698,4.6704102v26.6606903l22.399868,13.4403992l22.3994026-13.4403992V4.6704102
			L18.0028992-8.77637z M30.9843998,6.4814501l-12.9815006,7.7871504L5.0214801,6.4814501l12.9814186-7.79249L30.9843998,6.4814501z
			 M2.0029299,12.1328001L14.8027,19.8104992v15.5771999L2.0029299,27.7061005V12.1328001z M21.2031002,35.3876991V19.8104992
			l12.799799-7.6776991v15.5733004L21.2031002,35.3876991z"/>
	</g>
</g>
</svg>
