<?xml version="1.0" encoding="utf-8"?>
<!-- Generator: Adobe Illustrator 19.2.1, SVG Export Plug-In . SVG Version: 6.00 Build 0)  -->
<svg version="1.1" xmlns="http://www.w3.org/2000/svg" xmlns:xlink="http://www.w3.org/1999/xlink" x="0px" y="0px"
	 viewBox="0 0 36 36" style="enable-background:new 0 0 36 36;" xml:space="preserve">
<style type="text/css">
	.st0{display:none;}
	.st1{display:inline;fill:#FFFFFF;}
	.st2{display:inline;fill:none;stroke:#D1D3D4;stroke-width:0.25;stroke-miterlimit:10;}
	.st3{display:inline;fill:none;stroke:#D1D2D3;stroke-width:0.25;stroke-miterlimit:10;}
	.st4{display:inline;}
	.st5{fill:#00B388;}
	.st6{fill:#FFFFFF;}
</style>
<g id="white_bkgd_-_TURN_OFF" class="st0">
	<rect x="-17" y="-17" class="st1" width="70" height="70"/>
</g>
<g id="Grid_-_TURN_OFF" class="st0">
	<rect x="0.112305" y="0.112305" class="st2" width="35.7753944" height="35.7753944"/>
	<line class="st2" x1="35.8876991" y1="31.9120998" x2="0.112305" y2="31.9120998"/>
	<line class="st2" x1="35.8876991" y1="27.9375" x2="0.112305" y2="27.9375"/>
	<line class="st2" x1="35.8876991" y1="23.9629002" x2="0.112305" y2="23.9629002"/>
	<line class="st2" x1="35.8876991" y1="19.9873009" x2="0.112305" y2="19.9873009"/>
	<line class="st2" x1="35.8876991" y1="16.0126991" x2="0.112305" y2="16.0126991"/>
	<line class="st2" x1="35.8876991" y1="12.0375996" x2="0.112305" y2="12.0375996"/>
	<line class="st2" x1="35.8876991" y1="8.0625" x2="0.112305" y2="8.0625"/>
	<line class="st2" x1="35.8876991" y1="4.0874" x2="0.112305" y2="4.0874"/>
	<line class="st2" x1="4.0874" y1="35.8876991" x2="4.0874" y2="0.112305"/>
	<line class="st2" x1="8.0625" y1="35.8876991" x2="8.0625" y2="0.112305"/>
	<line class="st2" x1="12.0375996" y1="35.8876991" x2="12.0375996" y2="0.112305"/>
	<line class="st2" x1="16.0126991" y1="35.8876991" x2="16.0126991" y2="0.112305"/>
	<line class="st2" x1="19.9873009" y1="35.8876991" x2="19.9873009" y2="0.112305"/>
	<line class="st2" x1="23.9629002" y1="35.8876991" x2="23.9629002" y2="0.112305"/>
	<line class="st2" x1="27.9375" y1="35.8876991" x2="27.9375" y2="0.112305"/>
	<line class="st2" x1="31.9120998" y1="35.8876991" x2="31.9120998" y2="0.112305"/>
	<rect x="-39.6001015" y="-39.6001015" class="st3" width="115.1996994" height="115.1996994"/>
</g>
<g id="Title_-_TURN_OFF" class="st0">
	<rect x="-13.7084999" y="44.8280983" style="display:inline;fill:none;" width="63.4165001" height="7.5907998"/>
	<text transform="matrix(1 0 0 1 0.1762695 50.0288048)" class="st4"><tspan x="0" y="0" style="font-family:'Metric-Regular'; font-size:8px;">N</tspan><tspan x="4.9838867" y="0" style="font-family:'Metric-Regular'; font-size:8px;">e</tspan><tspan x="8.5439453" y="0" style="font-family:'Metric-Regular'; font-size:8px;">tworking</tspan></text>
</g>
<g id="_x31__Color_Icon">
	<g>
		<path class="st5" d="M23,23H13V13h10V23z M15,21h6v-6h-6V21z"/>
		<path class="st6" d="M36,18c0-1.3784008-0.9394989-2.5303001-2.2080002-2.8803997
			C32.6318016,8.49121,27.4433994,3.26758,20.8339996,2.0571301C20.4354992,0.866211,19.3232002,0,18,0
			c-1.3115005,0-2.4169998,0.851563-2.8237,2.02637C8.4633799,3.17871,3.1816399,8.4619102,2.03125,15.1743002
			C0.853516,15.5801001,0,16.6865005,0,18c0,1.3251991,0.869629,2.4395008,2.0639601,2.8358994
			c1.21192,6.6016006,6.43116,11.7871017,13.0542402,12.9512024C15.4658003,35.0575981,16.6196003,36,18,36
			c1.3915997,0,2.5547009-0.9570007,2.8915997-2.2440987c6.5205002-1.2207031,11.647501-6.347702,12.8672009-12.8653011
			C35.044899,20.5517998,36,19.3906002,36,18z M18,2c0.5513,0,1,0.44873,1,1s-0.4487,1-1,1s-1-0.44873-1-1S17.4487,2,18,2z M3,19
			c-0.55127,0-1-0.4487-1-1s0.44873-1,1-1s1,0.4487,1,1S3.55127,19,3,19z M18,34c-0.5513,0-1-0.4482002-1-1s0.4487-1,1-1
			s1,0.4482002,1,1S18.5513,34,18,34z M20.7227001,31.7567997C20.3866997,31.0244007,19.7646008,30.4570007,19,30.1846008V25h-2
			v5.1846008c-0.7744007,0.2753983-1.4038,0.852499-1.7368002,1.5985985
			c-5.6015797-1.0683994-10.0254097-5.4257984-11.17873-10.9940987C4.89258,20.4736004,5.5234399,19.8192997,5.8159199,19H11v-2
			H5.8159199c-0.2958999-0.8290997-0.9389701-1.4877996-1.7607398-1.7988005
			c1.0942297-5.6274691,5.51757-10.052269,11.1450195-11.1504192C15.5102997,4.8745098,16.1693993,5.5195298,17,5.8154302V11h2
			V5.8159199c0.8213005-0.2929697,1.4766006-0.92627,1.7910004-1.7377901
			c5.5723,1.1533203,9.9316998,5.5795803,10.9970989,11.1825705C31.0400009,15.5928001,30.4608994,16.2236004,30.1846008,17H25v2
			h5.1846008c0.2723999,0.7656002,0.8407993,1.3876991,1.5751991,1.7236004
			C30.6366997,26.2724991,26.2733994,30.6348,20.7227001,31.7567997z M33,19c-0.5517998,0-1-0.4487-1-1s0.4482002-1,1-1
			s1,0.4487,1,1S33.5517998,19,33,19z"/>
	</g>
</g>
<g id="_x32__Color_Icon" class="st0">
	<g class="st4">
		<path class="st5" d="M23,23H13V13h10V23z M15,21h6v-6h-6V21z"/>
		<path d="M36,18c0-1.3784008-0.9394989-2.5303001-2.2080002-2.8803997C32.6318016,8.49121,27.4433994,3.26758,20.8339996,2.0571301
			C20.4354992,0.866211,19.3232002,0,18,0c-1.3115005,0-2.4169998,0.851563-2.8237,2.02637
			C8.4633799,3.17871,3.1816399,8.4619102,2.03125,15.1743002C0.853516,15.5801001,0,16.6865005,0,18
			c0,1.3251991,0.869629,2.4395008,2.0639601,2.8358994c1.21192,6.6016006,6.43116,11.7871017,13.0542402,12.9512024
			C15.4658003,35.0575981,16.6196003,36,18,36c1.3915997,0,2.5547009-0.9570007,2.8915997-2.2440987
			c6.5205002-1.2207031,11.647501-6.347702,12.8672009-12.8653011C35.044899,20.5517998,36,19.3906002,36,18z M18,2
			c0.5513,0,1,0.44873,1,1s-0.4487,1-1,1s-1-0.44873-1-1S17.4487,2,18,2z M3,19c-0.55127,0-1-0.4487-1-1s0.44873-1,1-1s1,0.4487,1,1
			S3.55127,19,3,19z M18,34c-0.5513,0-1-0.4482002-1-1s0.4487-1,1-1s1,0.4482002,1,1S18.5513,34,18,34z M20.7227001,31.7567997
			C20.3866997,31.0244007,19.7646008,30.4570007,19,30.1846008V25h-2v5.1846008
			c-0.7744007,0.2753983-1.4038,0.852499-1.7368002,1.5985985c-5.6015797-1.0683994-10.0254097-5.4257984-11.17873-10.9940987
			C4.89258,20.4736004,5.5234399,19.8192997,5.8159199,19H11v-2H5.8159199
			c-0.2958999-0.8290997-0.9389701-1.4877996-1.7607398-1.7988005c1.0942297-5.6274691,5.51757-10.052269,11.1450195-11.1504192
			C15.5102997,4.8745098,16.1693993,5.5195298,17,5.8154302V11h2V5.8159199
			c0.8213005-0.2929697,1.4766006-0.92627,1.7910004-1.7377901c5.5723,1.1533203,9.9316998,5.5795803,10.9970989,11.1825705
			C31.0400009,15.5928001,30.4608994,16.2236004,30.1846008,17H25v2h5.1846008
			c0.2723999,0.7656002,0.8407993,1.3876991,1.5751991,1.7236004C30.6366997,26.2724991,26.2733994,30.6348,20.7227001,31.7567997z
			 M33,19c-0.5517998,0-1-0.4487-1-1s0.4482002-1,1-1s1,0.4487,1,1S33.5517998,19,33,19z"/>
	</g>
</g>
<g id="_x31_C_EMF_icon" class="st0">
	<g class="st4">
		<path class="st5" d="M34,34H2V2h32V34z M8.3999004,27.5995998h19.1996994V8.3999004H8.3999004V27.5995998z"/>
		<path class="st6" d="M75.5996017,18c0-4.4111004-3.0057983-8.0966797-7.0653992-9.2172899
			c-3.7118988-21.2109108-20.315403-37.9263115-41.4658051-41.7998123C25.7938995-36.8280983,22.2343998-39.6001015,18-39.6001015
			c-4.1968002,0-7.7343998,2.7251015-9.03613,6.4844017c-21.4809704,3.6875-38.3827705,20.5937004-42.0639725,42.0737076
			c-3.7685966,1.2982903-6.5,4.8388901-6.5,9.0419903c0,4.2402,2.7826996,7.8066006,6.6050034,9.0751991
			c3.8778973,21.125,20.5795975,37.7187004,41.7734184,41.4434013C9.8906298,72.5839996,13.5830002,75.5996017,18,75.5996017
			c4.4531002,0,8.1748009-3.0625,9.2528992-7.1807022C48.1190987,64.5127029,64.5253983,48.1063995,68.4276962,27.25
			C72.5438995,26.1660004,75.5996017,22.4501991,75.5996017,18z M18-33.2001991
			c1.7637005,0,3.2001991,1.4359989,3.2001991,3.2001991S19.7637005-26.7998009,18-26.7998009
			c-1.7642002,0-3.2002001-1.4359989-3.2002001-3.2001991S16.2357998-33.2001991,18-33.2001991z M-30,21.2001991
			c-1.7642002,0-3.2001991-1.4364986-3.2001991-3.2001991c0-1.7642002,1.4359989-3.2002001,3.2001991-3.2002001
			S-26.7998009,16.2357998-26.7998009,18C-26.7998009,19.7637005-28.2357998,21.2001991-30,21.2001991z M18,69.2002029
			c-1.7642002,0-3.2002001-1.4346008-3.2002001-3.2002029S16.2357998,62.7998009,18,62.7998009
			c1.7637005,0,3.2001991,1.434597,3.2001991,3.2001991S19.7637005,69.2002029,18,69.2002029z M26.7129002,62.0214996
			c-1.075201-2.3437996-3.0664005-4.1591988-5.512701-5.0312996V40.4003983h-6.4003992V56.9902
			c-2.4779997,0.8819008-4.4921999,2.7285995-5.5576096,5.1161995C-8.68262,58.6875-22.8388996,44.7440987-26.5298004,26.9248009
			c2.5860004-1.0088005,4.6049995-3.1025009,5.5405006-5.7246017H-4.3999v-6.4003992h-16.5893993
			c-0.946701-2.6527996-3.0044003-4.7607002-5.634201-5.7558498c3.5014-18.0078201,17.6562119-32.16745,35.664032-35.6816483
			c0.9921694,2.6362,3.1015701,4.7001991,5.7592697,5.6469994V-4.3999h6.4003992v-16.5893993
			c2.6279011-0.9375,4.7246017-2.9638004,5.7314014-5.5605011C44.7626991-22.8593998,58.7128983-8.6953096,62.1221008,9.2343798
			c-2.3936005,1.06252-4.2471008,3.0810204-5.1319008,5.5654202H40.4003983v6.4003992H56.9902
			c0.8721008,2.450201,2.6913986,4.4404011,5.0410995,5.5156002C58.4375,44.4716988,44.4746017,58.4315987,26.7129002,62.0214996z
			 M66,21.2001991c-1.7656021,0-3.2001991-1.4364986-3.2001991-3.2001991c0-1.7642002,1.434597-3.2002001,3.2001991-3.2002001
			S69.2002029,16.2357998,69.2002029,18C69.2002029,19.7637005,67.7656021,21.2001991,66,21.2001991z"/>
	</g>
</g>
<g id="_x32_C_EMF_icon" class="st0">
	<g class="st4">
		<path class="st5" d="M34,34H2V2h32V34z M8.3999004,27.5995998h19.1996994V8.3999004H8.3999004V27.5995998z"/>
		<path d="M75.5996017,18c0-4.4111004-3.0057983-8.0966797-7.0653992-9.2172899
			c-3.7118988-21.2109108-20.315403-37.9263115-41.4658051-41.7998123C25.7938995-36.8280983,22.2343998-39.6001015,18-39.6001015
			c-4.1968002,0-7.7343998,2.7251015-9.03613,6.4844017c-21.4809704,3.6875-38.3827705,20.5937004-42.0639725,42.0737076
			c-3.7685966,1.2982903-6.5,4.8388901-6.5,9.0419903c0,4.2402,2.7826996,7.8066006,6.6050034,9.0751991
			c3.8778973,21.125,20.5795975,37.7187004,41.7734184,41.4434013C9.8906298,72.5839996,13.5830002,75.5996017,18,75.5996017
			c4.4531002,0,8.1748009-3.0625,9.2528992-7.1807022C48.1190987,64.5127029,64.5253983,48.1063995,68.4276962,27.25
			C72.5438995,26.1660004,75.5996017,22.4501991,75.5996017,18z M18-33.2001991
			c1.7637005,0,3.2001991,1.4359989,3.2001991,3.2001991S19.7637005-26.7998009,18-26.7998009
			c-1.7642002,0-3.2002001-1.4359989-3.2002001-3.2001991S16.2357998-33.2001991,18-33.2001991z M-30,21.2001991
			c-1.7642002,0-3.2001991-1.4364986-3.2001991-3.2001991c0-1.7642002,1.4359989-3.2002001,3.2001991-3.2002001
			S-26.7998009,16.2357998-26.7998009,18C-26.7998009,19.7637005-28.2357998,21.2001991-30,21.2001991z M18,69.2002029
			c-1.7642002,0-3.2002001-1.4346008-3.2002001-3.2002029S16.2357998,62.7998009,18,62.7998009
			c1.7637005,0,3.2001991,1.434597,3.2001991,3.2001991S19.7637005,69.2002029,18,69.2002029z M26.7129002,62.0214996
			c-1.075201-2.3437996-3.0664005-4.1591988-5.512701-5.0312996V40.4003983h-6.4003992V56.9902
			c-2.4779997,0.8819008-4.4921999,2.7285995-5.5576096,5.1161995C-8.68262,58.6875-22.8388996,44.7440987-26.5298004,26.9248009
			c2.5860004-1.0088005,4.6049995-3.1025009,5.5405006-5.7246017H-4.3999v-6.4003992h-16.5893993
			c-0.946701-2.6527996-3.0044003-4.7607002-5.634201-5.7558498c3.5014-18.0078201,17.6562119-32.16745,35.664032-35.6816483
			c0.9921694,2.6362,3.1015701,4.7001991,5.7592697,5.6469994V-4.3999h6.4003992v-16.5893993
			c2.6279011-0.9375,4.7246017-2.9638004,5.7314014-5.5605011C44.7626991-22.8593998,58.7128983-8.6953096,62.1221008,9.2343798
			c-2.3936005,1.06252-4.2471008,3.0810204-5.1319008,5.5654202H40.4003983v6.4003992H56.9902
			c0.8721008,2.450201,2.6913986,4.4404011,5.0410995,5.5156002C58.4375,44.4716988,44.4746017,58.4315987,26.7129002,62.0214996z
			 M66,21.2001991c-1.7656021,0-3.2001991-1.4364986-3.2001991-3.2001991c0-1.7642002,1.434597-3.2002001,3.2001991-3.2002001
			S69.2002029,16.2357998,69.2002029,18C69.2002029,19.7637005,67.7656021,21.2001991,66,21.2001991z"/>
	</g>
</g>
</svg>
