<?xml version="1.0" encoding="utf-8"?>
<!-- Generator: Adobe Illustrator 15.1.0, SVG Export Plug-In . SVG Version: 6.00 Build 0)  -->
<!DOCTYPE svg PUBLIC "-//W3C//DTD SVG 1.1//EN" "http://www.w3.org/Graphics/SVG/1.1/DTD/svg11.dtd">
<svg version="1.1" xmlns="http://www.w3.org/2000/svg" xmlns:xlink="http://www.w3.org/1999/xlink" x="0px" y="0px" width="36px"
	 height="36px" viewBox="0 0 36 36" style="enable-background:new 0 0 36 36;" xml:space="preserve">
<style type="text/css">
<![CDATA[
	.st0{font-family:'Metric-Regular';}
	.st1{font-size:8;}
	.st2{display:inline;fill:#FFFFFF;}
	.st3{display:inline;fill:none;stroke:#D1D3D4;stroke-width:0.25;stroke-miterlimit:10;}
	.st4{fill:#FFFFFF;}
	.st5{display:inline;}
	.st6{display:inline;fill:none;}
	.st7{display:inline;fill:none;stroke:#D1D2D3;stroke-width:0.25;stroke-miterlimit:10;}
	.st8{fill:#00B388;}
	.st9{display:none;}
]]>
</style>
<g id="white_bkgd_-_TURN_OFF" class="st9">
	<rect x="-17" y="-17" class="st2" width="70" height="70"/>
</g>
<g id="Grid_-_TURN_OFF" class="st9">
	<rect x="0.1123047" y="0.1123047" class="st3" width="35.7753906" height="35.7753906"/>
	<line class="st3" x1="35.8876953" y1="31.9121094" x2="0.1123047" y2="31.9121094"/>
	<line class="st3" x1="35.8876953" y1="27.9375" x2="0.1123047" y2="27.9375"/>
	<line class="st3" x1="35.8876953" y1="23.9628906" x2="0.1123047" y2="23.9628906"/>
	<line class="st3" x1="35.8876953" y1="19.9873047" x2="0.1123047" y2="19.9873047"/>
	<line class="st3" x1="35.8876953" y1="16.0126953" x2="0.1123047" y2="16.0126953"/>
	<line class="st3" x1="35.8876953" y1="12.0375977" x2="0.1123047" y2="12.0375977"/>
	<line class="st3" x1="35.8876953" y1="8.0625" x2="0.1123047" y2="8.0625"/>
	<line class="st3" x1="35.8876953" y1="4.0874023" x2="0.1123047" y2="4.0874023"/>
	<line class="st3" x1="4.0874023" y1="35.8876953" x2="4.0874023" y2="0.1123047"/>
	<line class="st3" x1="8.0625" y1="35.8876953" x2="8.0625" y2="0.1123047"/>
	<line class="st3" x1="12.0375977" y1="35.8876953" x2="12.0375977" y2="0.1123047"/>
	<line class="st3" x1="16.0126953" y1="35.8876953" x2="16.0126953" y2="0.1123047"/>
	<line class="st3" x1="19.9873047" y1="35.8876953" x2="19.9873047" y2="0.1123047"/>
	<line class="st3" x1="23.9628906" y1="35.8876953" x2="23.9628906" y2="0.1123047"/>
	<line class="st3" x1="27.9375" y1="35.8876953" x2="27.9375" y2="0.1123047"/>
	<line class="st3" x1="31.9121094" y1="35.8876953" x2="31.9121094" y2="0.1123047"/>
	<rect x="-39.6000977" y="-39.6000977" class="st7" width="115.199707" height="115.199707"/>
</g>
<g id="Title_-_TURN_OFF" class="st9">
	<rect x="-22.0556641" y="44.828125" class="st6" width="80.1103516" height="18.5908203"/>
	<text transform="matrix(1 0 0 1 -1.5126953 50.0273438)" class="st5"><tspan x="0" y="0" class="st0 st1">P</tspan><tspan x="4.1362305" y="0" class="st0 st1">er</tspan><tspan x="10.3041992" y="0" class="st0 st1">f</tspan><tspan x="12.5600586" y="0" class="st0 st1">ormance</tspan></text>
</g>
<g id="_x31__Color_Icon" class="st9">
	<g class="st5">
		<g>
			<path class="st4" d="M5.7773438,24.2773438h-2c0-7.8427734,6.3808594-14.2226562,14.2226562-14.2226562
				c4.1855469,0,8.0380859,1.7783203,10.8476562,5.0078125l-1.5078125,1.3125
				C24.9150391,13.5888672,21.5986328,12.0546875,18,12.0546875C11.2607422,12.0546875,5.7773438,17.5371094,5.7773438,24.2773438z"
				/>
			<path class="st4" d="M32.2226562,24.2773438h-2c0-1.7949219-0.3828125-3.5273438-1.1367188-5.1464844l1.8125-0.8457031
				C31.7773438,20.171875,32.2226562,22.1875,32.2226562,24.2773438z"/>
			<path class="st4" d="M36,30H23c-0.5527344,0-1-0.4472656-1-1s0.4472656-1,1-1h11v-3.7226562c0-8.8222656-7.1777344-16-16-16
				s-16,7.1777344-16,16V28h11c0.5527344,0,1,0.4472656,1,1s-0.4472656,1-1,1H0v-5.7226562c0-9.9257812,8.0742188-18,18-18
				c9.9248047,0,18,8.0742188,18,18V30z"/>
		</g>
		<path class="st4" d="M27.9482422,22.15625c-0.1738281-0.5234375-0.7373047-0.8085938-1.2646484-0.6318359l-6.3300781,2.1103516
			C19.8037109,22.9326172,18.9584961,22.4726562,18,22.4726562c-1.6542969,0-3,1.3457031-3,3s1.3457031,3,3,3
			c1.6347656,0,2.9638672-1.3164062,2.9941406-2.9443359l6.3222656-2.1074219
			C27.8398438,23.2470703,28.1230469,22.6806641,27.9482422,22.15625z M18,26.4726562c-0.5512695,0-1-0.4482422-1-1s0.4487305-1,1-1
			s1,0.4482422,1,1S18.5512695,26.4726562,18,26.4726562z"/>
	</g>
</g>
<g id="_x32__Color_Icon">
	<g>
		<g>
			<path d="M5.7773438,24.2773438h-2c0-7.8427734,6.3808594-14.2226562,14.2226562-14.2226562
				c4.1855469,0,8.0380859,1.7783203,10.8476562,5.0078125l-1.5078125,1.3125
				C24.9150391,13.5888672,21.5986328,12.0546875,18,12.0546875C11.2607422,12.0546875,5.7773438,17.5371094,5.7773438,24.2773438z"
				/>
			<path class="st8" d="M32.2226562,24.2773438h-2c0-1.7949219-0.3828125-3.5273438-1.1367188-5.1464844l1.8125-0.8457031
				C31.7773438,20.171875,32.2226562,22.1875,32.2226562,24.2773438z"/>
			<path d="M36,30H23c-0.5527344,0-1-0.4472656-1-1s0.4472656-1,1-1h11v-3.7226562c0-8.8222656-7.1777344-16-16-16
				s-16,7.1777344-16,16V28h11c0.5527344,0,1,0.4472656,1,1s-0.4472656,1-1,1H0v-5.7226562c0-9.9257812,8.0742188-18,18-18
				c9.9248047,0,18,8.0742188,18,18V30z"/>
		</g>
		<path class="st8" d="M27.9482422,22.15625c-0.1738281-0.5234375-0.7373047-0.8085938-1.2646484-0.6318359l-6.3300781,2.1103516
			C19.8037109,22.9326172,18.9584961,22.4726562,18,22.4726562c-1.6542969,0-3,1.3457031-3,3s1.3457031,3,3,3
			c1.6347656,0,2.9638672-1.3164062,2.9941406-2.9443359l6.3222656-2.1074219
			C27.8398438,23.2470703,28.1230469,22.6806641,27.9482422,22.15625z M18,26.4726562c-0.5512695,0-1-0.4482422-1-1s0.4487305-1,1-1
			s1,0.4482422,1,1S18.5512695,26.4726562,18,26.4726562z"/>
	</g>
</g>
<g id="_x31_C_EMF_Icon" class="st9">
	<g class="st5">
		<g>
			<path class="st4" d="M-21.1123047,37.7822266h-6.4003906C-27.5126953,12.6855469-7.09375-7.7299805,18-7.7299805
				c13.3935547,0,25.7216797,5.6904297,34.7128906,16.0249023l-4.8251953,4.2001953
				C40.1279297,3.5791016,29.515625-1.3300781,18-1.3300781C-3.5654297-1.3300781-21.1123047,16.2138672-21.1123047,37.7822266z"/>
			<path class="st4" d="M63.5126953,37.7822266h-6.4003906c0-5.7431641-1.2246094-11.2871094-3.6376953-16.46875
				l5.8007812-2.7060547C62.0878906,24.6445312,63.5126953,31.0947266,63.5126953,37.7822266z"/>
			<path class="st4" d="M75.5996094,56.0947266H34c-1.7685547,0-3.2001953-1.4306641-3.2001953-3.2001953
				c0-1.7685547,1.4316406-3.1992188,3.2001953-3.1992188h35.2001953V37.7822266
				c0-28.230957-22.96875-51.199707-51.2001953-51.199707s-51.2001953,22.96875-51.2001953,51.199707v11.9130859H2
				c1.7685547,0,3.2001953,1.4306641,3.2001953,3.1992188c0,1.7695312-1.4316406,3.2001953-3.2001953,3.2001953h-41.6000977
				v-18.3125c0-31.762207,25.8374023-57.5996094,57.6000977-57.5996094c31.7597656,0,57.5996094,25.8374023,57.5996094,57.5996094
				V56.0947266z"/>
		</g>
		<path class="st4" d="M49.8339844,30.9951172c-0.5556641-1.6748047-2.359375-2.5878906-4.046875-2.0224609L25.53125,35.7265625
			c-1.7597656-2.2470703-4.4638672-3.71875-7.53125-3.71875c-5.2939453,0-9.6000977,4.3056641-9.6000977,9.5996094
			S12.7060547,51.2070312,18,51.2070312c5.2314453,0,9.484375-4.2119141,9.5810547-9.421875L47.8125,35.0419922
			C49.4873047,34.4853516,50.3935547,32.6728516,49.8339844,30.9951172z M18,44.8076172
			c-1.7641602,0-3.2001953-1.4345703-3.2001953-3.2001953S16.2358398,38.4072266,18,38.4072266
			c1.7636719,0,3.2001953,1.4345703,3.2001953,3.2001953S19.7636719,44.8076172,18,44.8076172z"/>
	</g>
</g>
<g id="_x32_C_EMF_Icon" class="st9">
	<g class="st5">
		<g>
			<path d="M-21.1123047,37.7822266h-6.4003906C-27.5126953,12.6855469-7.09375-7.7299805,18-7.7299805
				c13.3935547,0,25.7216797,5.6904297,34.7128906,16.0249023l-4.8251953,4.2001953
				C40.1279297,3.5791016,29.515625-1.3300781,18-1.3300781C-3.5654297-1.3300781-21.1123047,16.2138672-21.1123047,37.7822266z"/>
			<path class="st8" d="M63.5126953,37.7822266h-6.4003906c0-5.7431641-1.2246094-11.2871094-3.6376953-16.46875
				l5.8007812-2.7060547C62.0878906,24.6445312,63.5126953,31.0947266,63.5126953,37.7822266z"/>
			<path d="M75.5996094,56.0947266H34c-1.7685547,0-3.2001953-1.4306641-3.2001953-3.2001953
				c0-1.7685547,1.4316406-3.1992188,3.2001953-3.1992188h35.2001953V37.7822266
				c0-28.230957-22.96875-51.199707-51.2001953-51.199707s-51.2001953,22.96875-51.2001953,51.199707v11.9130859H2
				c1.7685547,0,3.2001953,1.4306641,3.2001953,3.1992188c0,1.7695312-1.4316406,3.2001953-3.2001953,3.2001953h-41.6000977
				v-18.3125c0-31.762207,25.8374023-57.5996094,57.6000977-57.5996094c31.7597656,0,57.5996094,25.8374023,57.5996094,57.5996094
				V56.0947266z"/>
		</g>
		<path class="st8" d="M49.8339844,30.9951172c-0.5556641-1.6748047-2.359375-2.5878906-4.046875-2.0224609L25.53125,35.7265625
			c-1.7597656-2.2470703-4.4638672-3.71875-7.53125-3.71875c-5.2939453,0-9.6000977,4.3056641-9.6000977,9.5996094
			S12.7060547,51.2070312,18,51.2070312c5.2314453,0,9.484375-4.2119141,9.5810547-9.421875L47.8125,35.0419922
			C49.4873047,34.4853516,50.3935547,32.6728516,49.8339844,30.9951172z M18,44.8076172
			c-1.7641602,0-3.2001953-1.4345703-3.2001953-3.2001953S16.2358398,38.4072266,18,38.4072266
			c1.7636719,0,3.2001953,1.4345703,3.2001953,3.2001953S19.7636719,44.8076172,18,44.8076172z"/>
	</g>
</g>
</svg>
