<?xml version="1.0" encoding="utf-8"?>
<!-- Generator: Adobe Illustrator 19.2.1, SVG Export Plug-In . SVG Version: 6.00 Build 0)  -->
<svg version="1.1" xmlns="http://www.w3.org/2000/svg" xmlns:xlink="http://www.w3.org/1999/xlink" x="0px" y="0px"
	 viewBox="0 0 36 36" style="enable-background:new 0 0 36 36;" xml:space="preserve">
<style type="text/css">
	.st0{display:none;}
	.st1{display:inline;fill:#FFFFFF;}
	.st2{display:inline;fill:none;stroke:#D1D3D4;stroke-width:0.25;stroke-miterlimit:10;}
	.st3{display:inline;fill:none;stroke:#D1D2D3;stroke-width:0.25;stroke-miterlimit:10;}
	.st4{display:inline;}
	.st5{fill:#FFFFFF;}
	.st6{fill:#00B388;}
</style>
<g id="white_bkgd_-_TURN_OFF" class="st0">
	<rect x="-17" y="-17" class="st1" width="70" height="70"/>
</g>
<g id="Grid_-_TURN_OFF" class="st0">
	<rect x="0.112305" y="0.112305" class="st2" width="35.7753944" height="35.7753944"/>
	<line class="st2" x1="35.8876991" y1="31.9120998" x2="0.112305" y2="31.9120998"/>
	<line class="st2" x1="35.8876991" y1="27.9375" x2="0.112305" y2="27.9375"/>
	<line class="st2" x1="35.8876991" y1="23.9629002" x2="0.112305" y2="23.9629002"/>
	<line class="st2" x1="35.8876991" y1="19.9873009" x2="0.112305" y2="19.9873009"/>
	<line class="st2" x1="35.8876991" y1="16.0126991" x2="0.112305" y2="16.0126991"/>
	<line class="st2" x1="35.8876991" y1="12.0375996" x2="0.112305" y2="12.0375996"/>
	<line class="st2" x1="35.8876991" y1="8.0625" x2="0.112305" y2="8.0625"/>
	<line class="st2" x1="35.8876991" y1="4.0874" x2="0.112305" y2="4.0874"/>
	<line class="st2" x1="4.0874" y1="35.8876991" x2="4.0874" y2="0.112305"/>
	<line class="st2" x1="8.0625" y1="35.8876991" x2="8.0625" y2="0.112305"/>
	<line class="st2" x1="12.0375996" y1="35.8876991" x2="12.0375996" y2="0.112305"/>
	<line class="st2" x1="16.0126991" y1="35.8876991" x2="16.0126991" y2="0.112305"/>
	<line class="st2" x1="19.9873009" y1="35.8876991" x2="19.9873009" y2="0.112305"/>
	<line class="st2" x1="23.9629002" y1="35.8876991" x2="23.9629002" y2="0.112305"/>
	<line class="st2" x1="27.9375" y1="35.8876991" x2="27.9375" y2="0.112305"/>
	<line class="st2" x1="31.9120998" y1="35.8876991" x2="31.9120998" y2="0.112305"/>
	<rect x="-39.6001015" y="-39.6001015" class="st3" width="115.1996994" height="115.1996994"/>
</g>
<g id="Title_-_TURN_OFF" class="st0">
	<rect x="-22.0557003" y="44.8280983" style="display:inline;fill:none;" width="80.1103973" height="18.5907993"/>
	<text transform="matrix(1 0 0 1 -1.5126953 50.0278282)" class="st4"><tspan x="0" y="0" style="font-family:'Metric-Regular'; font-size:8px;">P</tspan><tspan x="4.1362305" y="0" style="font-family:'Metric-Regular'; font-size:8px;">er</tspan><tspan x="10.3041992" y="0" style="font-family:'Metric-Regular'; font-size:8px;">f</tspan><tspan x="12.5600586" y="0" style="font-family:'Metric-Regular'; font-size:8px;">ormance</tspan></text>
</g>
<g id="_x31__Color_Icon">
	<g>
		<g>
			<path class="st5" d="M5.7773399,24.2772999h-2c0-7.8426991,6.3808603-14.2226,14.2226601-14.2226
				c4.1854992,0,8.0380993,1.7783003,10.8477001,5.0078001l-1.5079002,1.3125
				C24.9150009,13.5888996,21.5986004,12.0546999,18,12.0546999C11.2607002,12.0546999,5.7773399,17.5370998,5.7773399,24.2772999z"
				/>
			<path class="st6" d="M32.2226982,24.2772999h-1.9999981c0-1.794899-0.3829002-3.5272999-1.1368008-5.1464005l1.8125-0.8456993
				C31.7772999,20.1718998,32.2226982,22.1875,32.2226982,24.2772999z"/>
			<path class="st5" d="M36,30H23c-0.5527,0-1-0.4473-1-1s0.4473-1,1-1h11v-3.7227001c0-8.8221998-7.1777-15.9999599-16-15.9999599
				c-8.8222704,0-16,7.1777601-16,15.9999599V28h11c0.5527,0,1,0.4473,1,1s-0.4473,1-1,1H0v-5.7227001
				C0,14.3515997,8.0742197,6.2773399,18,6.2773399c9.9248009,0,18,8.0742598,18,17.9999599V30z"/>
		</g>
		<path class="st6" d="M27.9482002,22.1562996c-0.1737995-0.5235004-0.7373009-0.8085995-1.2646008-0.6318989L20.3535004,23.6348
			C19.8036995,22.9326,18.9584999,22.4727001,18,22.4727001c-1.6543007,0-3,1.3456993-3,3s1.3456993,3,3,3
			c1.6348,0,2.9638996-1.3164005,2.9941006-2.9444008l6.3223-2.107399
			C27.8397999,23.2471008,28.1229992,22.6807003,27.9482002,22.1562996z M18,26.4727001c-0.5513,0-1-0.4482994-1-1
			c0-0.5517998,0.4487-1,1-1s1,0.4482002,1,1C19,26.0244007,18.5513,26.4727001,18,26.4727001z"/>
	</g>
</g>
<g id="_x32__Color_Icon" class="st0">
	<g class="st4">
		<g>
			<path d="M5.7773399,24.2772999h-2c0-7.8426991,6.3808603-14.2226,14.2226601-14.2226
				c4.1854992,0,8.0380993,1.7783003,10.8477001,5.0078001l-1.5079002,1.3125
				C24.9150009,13.5888996,21.5986004,12.0546999,18,12.0546999C11.2607002,12.0546999,5.7773399,17.5370998,5.7773399,24.2772999z"
				/>
			<path class="st6" d="M32.2226982,24.2772999h-1.9999981c0-1.794899-0.3829002-3.5272999-1.1368008-5.1464005l1.8125-0.8456993
				C31.7772999,20.1718998,32.2226982,22.1875,32.2226982,24.2772999z"/>
			<path d="M36,30H23c-0.5527,0-1-0.4473-1-1s0.4473-1,1-1h11v-3.7227001c0-8.8221998-7.1777-15.9999599-16-15.9999599
				c-8.8222704,0-16,7.1777601-16,15.9999599V28h11c0.5527,0,1,0.4473,1,1s-0.4473,1-1,1H0v-5.7227001
				C0,14.3515997,8.0742197,6.2773399,18,6.2773399c9.9248009,0,18,8.0742598,18,17.9999599V30z"/>
		</g>
		<path class="st6" d="M27.9482002,22.1562996c-0.1737995-0.5235004-0.7373009-0.8085995-1.2646008-0.6318989L20.3535004,23.6348
			C19.8036995,22.9326,18.9584999,22.4727001,18,22.4727001c-1.6543007,0-3,1.3456993-3,3s1.3456993,3,3,3
			c1.6348,0,2.9638996-1.3164005,2.9941006-2.9444008l6.3223-2.107399
			C27.8397999,23.2471008,28.1229992,22.6807003,27.9482002,22.1562996z M18,26.4727001c-0.5513,0-1-0.4482994-1-1
			c0-0.5517998,0.4487-1,1-1s1,0.4482002,1,1C19,26.0244007,18.5513,26.4727001,18,26.4727001z"/>
	</g>
</g>
<g id="_x31_C_EMF_Icon" class="st0">
	<g class="st4">
		<g>
			<path class="st5" d="M-21.1123009,37.7821999h-6.4003983C-27.5126991,12.6855001-7.09375-7.72998,18-7.72998
				c13.3936005,0,25.7216988,5.6904297,34.7128983,16.0249004L47.8876991,12.4951
				C40.1278992,3.5790999,29.5156002-1.33008,18-1.33008C-3.5654299-1.33008-21.1123009,16.2138996-21.1123009,37.7821999z"/>
			<path class="st6" d="M63.5126991,37.7821999h-6.4003983c0-5.7430992-1.2246017-11.2870998-3.6376991-16.4687004
				l5.8007965-2.7060986C62.0878983,24.6445007,63.5126991,31.0946999,63.5126991,37.7821999z"/>
			<path class="st5" d="M75.5996017,56.0946999H34c-1.7686005,0-3.2001991-1.4305992-3.2001991-3.2001991
				c0-1.7685013,1.4315987-3.1991997,3.2001991-3.1991997h35.2002029V37.7821999
				c0-28.2309303-22.9688034-51.1996994-51.2002029-51.1996994S-33.2001991,9.5512695-33.2001991,37.7821999v11.9131012H2
				c1.7685499,0,3.2002001,1.4306984,3.2002001,3.1991997c0,1.7695999-1.4316502,3.2001991-3.2002001,3.2001991h-41.6001015
				v-18.3125C-39.6001015,6.02002-13.7627001-19.8174,18-19.8174c31.7598,0,57.5996017,25.8374195,57.5996017,57.5996017V56.0946999
				z"/>
		</g>
		<path class="st6" d="M49.8339996,30.9951c-0.5556984-1.6748009-2.3593979-2.5879002-4.0468979-2.0223999l-20.2558022,6.7539005
			C23.7714996,33.4794998,21.0674,32.0078011,18,32.0078011c-5.2938995,0-9.6000996,4.3056984-9.6000996,9.5995979
			c0,5.2940025,4.3062,9.5996017,9.6000996,9.5996017c5.2313995,0,9.4843998-4.2119026,9.5811005-9.4218025L47.8125,35.0419998
			C49.4873009,34.4854012,50.3936005,32.6729012,49.8339996,30.9951z M18,44.8075981
			c-1.7642002,0-3.2002001-1.434597-3.2002001-3.2001991c0-1.7655983,1.4359999-3.2001991,3.2002001-3.2001991
			c1.7637005,0,3.2001991,1.4346008,3.2001991,3.2001991C21.2001991,43.3730011,19.7637005,44.8075981,18,44.8075981z"/>
	</g>
</g>
<g id="_x32_C_EMF_Icon" class="st0">
	<g class="st4">
		<g>
			<path d="M-21.1123009,37.7821999h-6.4003983C-27.5126991,12.6855001-7.09375-7.72998,18-7.72998
				c13.3936005,0,25.7216988,5.6904297,34.7128983,16.0249004L47.8876991,12.4951
				C40.1278992,3.5790999,29.5156002-1.33008,18-1.33008C-3.5654299-1.33008-21.1123009,16.2138996-21.1123009,37.7821999z"/>
			<path class="st6" d="M63.5126991,37.7821999h-6.4003983c0-5.7430992-1.2246017-11.2870998-3.6376991-16.4687004
				l5.8007965-2.7060986C62.0878983,24.6445007,63.5126991,31.0946999,63.5126991,37.7821999z"/>
			<path d="M75.5996017,56.0946999H34c-1.7686005,0-3.2001991-1.4305992-3.2001991-3.2001991
				c0-1.7685013,1.4315987-3.1991997,3.2001991-3.1991997h35.2002029V37.7821999
				c0-28.2309303-22.9688034-51.1996994-51.2002029-51.1996994S-33.2001991,9.5512695-33.2001991,37.7821999v11.9131012H2
				c1.7685499,0,3.2002001,1.4306984,3.2002001,3.1991997c0,1.7695999-1.4316502,3.2001991-3.2002001,3.2001991h-41.6001015
				v-18.3125C-39.6001015,6.02002-13.7627001-19.8174,18-19.8174c31.7598,0,57.5996017,25.8374195,57.5996017,57.5996017V56.0946999
				z"/>
		</g>
		<path class="st6" d="M49.8339996,30.9951c-0.5556984-1.6748009-2.3593979-2.5879002-4.0468979-2.0223999l-20.2558022,6.7539005
			C23.7714996,33.4794998,21.0674,32.0078011,18,32.0078011c-5.2938995,0-9.6000996,4.3056984-9.6000996,9.5995979
			c0,5.2940025,4.3062,9.5996017,9.6000996,9.5996017c5.2313995,0,9.4843998-4.2119026,9.5811005-9.4218025L47.8125,35.0419998
			C49.4873009,34.4854012,50.3936005,32.6729012,49.8339996,30.9951z M18,44.8075981
			c-1.7642002,0-3.2002001-1.434597-3.2002001-3.2001991c0-1.7655983,1.4359999-3.2001991,3.2002001-3.2001991
			c1.7637005,0,3.2001991,1.4346008,3.2001991,3.2001991C21.2001991,43.3730011,19.7637005,44.8075981,18,44.8075981z"/>
	</g>
</g>
</svg>
