<?xml version="1.0" encoding="utf-8"?>
<!-- Generator: Adobe Illustrator 19.2.1, SVG Export Plug-In . SVG Version: 6.00 Build 0)  -->
<svg version="1.1" xmlns="http://www.w3.org/2000/svg" xmlns:xlink="http://www.w3.org/1999/xlink" x="0px" y="0px"
	 viewBox="0 0 36 36" style="enable-background:new 0 0 36 36;" xml:space="preserve">
<style type="text/css">
	.st0{display:none;}
	.st1{display:inline;fill:#FFFFFF;}
	.st2{display:inline;fill:none;stroke:#D1D3D4;stroke-width:0.25;stroke-miterlimit:10;}
	.st3{display:inline;fill:none;stroke:#D1D2D3;stroke-width:0.25;stroke-miterlimit:10;}
	.st4{display:inline;}
	.st5{fill:#FFFFFF;}
	.st6{fill:#00B388;}
</style>
<g id="white_bkgd_-_TURN_OFF" class="st0">
	<rect x="-17" y="-17" class="st1" width="70" height="70"/>
</g>
<g id="Grid_-_TURN_OFF" class="st0">
	<rect x="0.112305" y="0.112305" class="st2" width="35.7753944" height="35.7753944"/>
	<line class="st2" x1="35.8876991" y1="31.9120998" x2="0.112305" y2="31.9120998"/>
	<line class="st2" x1="35.8876991" y1="27.9375" x2="0.112305" y2="27.9375"/>
	<line class="st2" x1="35.8876991" y1="23.9629002" x2="0.112305" y2="23.9629002"/>
	<line class="st2" x1="35.8876991" y1="19.9873009" x2="0.112305" y2="19.9873009"/>
	<line class="st2" x1="35.8876991" y1="16.0126991" x2="0.112305" y2="16.0126991"/>
	<line class="st2" x1="35.8876991" y1="12.0375996" x2="0.112305" y2="12.0375996"/>
	<line class="st2" x1="35.8876991" y1="8.0625" x2="0.112305" y2="8.0625"/>
	<line class="st2" x1="35.8876991" y1="4.0874" x2="0.112305" y2="4.0874"/>
	<line class="st2" x1="4.0874" y1="35.8876991" x2="4.0874" y2="0.112305"/>
	<line class="st2" x1="8.0625" y1="35.8876991" x2="8.0625" y2="0.112305"/>
	<line class="st2" x1="12.0375996" y1="35.8876991" x2="12.0375996" y2="0.112305"/>
	<line class="st2" x1="16.0126991" y1="35.8876991" x2="16.0126991" y2="0.112305"/>
	<line class="st2" x1="19.9873009" y1="35.8876991" x2="19.9873009" y2="0.112305"/>
	<line class="st2" x1="23.9629002" y1="35.8876991" x2="23.9629002" y2="0.112305"/>
	<line class="st2" x1="27.9375" y1="35.8876991" x2="27.9375" y2="0.112305"/>
	<line class="st2" x1="31.9120998" y1="35.8876991" x2="31.9120998" y2="0.112305"/>
	<rect x="-39.6001015" y="-39.6001015" class="st3" width="115.1996994" height="115.1996994"/>
</g>
<g id="Title_-_TURN_OFF" class="st0">
	<rect x="-22.0557003" y="44.8280983" style="display:inline;fill:none;" width="80.1103973" height="18.5907993"/>
	<text transform="matrix(1 0 0 1 -2.1806641 50.0278282)" class="st4"><tspan x="0" y="0" style="font-family:'Metric-Regular'; font-size:8px;">Time s</tspan><tspan x="20.4555664" y="0" style="font-family:'Metric-Regular'; font-size:8px;">a</tspan><tspan x="23.9995117" y="0" style="font-family:'Metric-Regular'; font-size:8px;">vings</tspan></text>
</g>
<g id="_x31__Color_Icon" class="st0">
	<g class="st4">
		<path class="st5" d="M18,36C8.0747099,36,0,27.9248009,0,18C0,8.0747099,8.0747099,0,18,0v2C9.1777296,2,2,9.1777296,2,18
			c0,8.8223,7.1777296,16,16,16c8.8223,0,16-7.1777,16-16h2C36,27.9248009,27.9248009,36,18,36z"/>
		<g>
			<g>
				<path class="st6" d="M19,11.0692997V10h1V8h-4v2h1v1.0692997C13.0600996,11.5640001,10,14.9281998,10,19
					c0,4.4111004,3.5888996,8,8,8s8-3.5888996,8-8C26,14.9281998,22.9395008,11.5640001,19,11.0692997z M18,25
					c-3.3086004,0-6-2.6914005-6-6s2.6913996-6,6-6s6,2.6913996,6,6S21.3085995,25,18,25z"/>
				<polygon class="st6" points="19,15 17,15 17,21 21,21 21,19 19,19 				"/>
			</g>
			<path class="st6" d="M33.3223,13.3788996C31.7675991,8.2299805,27.7665997,4.2294898,22.6201,2.6772499l0.5781002-1.9150429
				c5.7891006,1.746583,10.2901001,6.2470732,12.0381012,12.0385933L33.3223,13.3788996z"/>
		</g>
	</g>
</g>
<g id="_x32__Color_Icon">
	<g>
		<path d="M18,36C8.0747099,36,0,27.9248009,0,18C0,8.0747099,8.0747099,0,18,0v2C9.1777296,2,2,9.1777296,2,18
			c0,8.8223,7.1777296,16,16,16c8.8223,0,16-7.1777,16-16h2C36,27.9248009,27.9248009,36,18,36z"/>
		<g>
			<g>
				<path class="st6" d="M19,11.0692997V10h1V8h-4v2h1v1.0692997C13.0600996,11.5640001,10,14.9281998,10,19
					c0,4.4111004,3.5888996,8,8,8s8-3.5888996,8-8C26,14.9281998,22.9395008,11.5640001,19,11.0692997z M18,25
					c-3.3086004,0-6-2.6914005-6-6s2.6913996-6,6-6s6,2.6913996,6,6S21.3085995,25,18,25z"/>
				<polygon class="st6" points="19,15 17,15 17,21 21,21 21,19 19,19 				"/>
			</g>
			<path class="st6" d="M33.3223,13.3788996C31.7675991,8.2299805,27.7665997,4.2294898,22.6201,2.6772499l0.5781002-1.9150429
				c5.7891006,1.746583,10.2901001,6.2470732,12.0381012,12.0385933L33.3223,13.3788996z"/>
		</g>
	</g>
</g>
<g id="_x31_C_EMF_Icon" class="st0">
	<g class="st4">
		<path class="st5" d="M18,75.5996017C-13.7607002,75.5996017-39.6001015,49.7598-39.6001015,18
			c0-31.7607002,25.8394012-57.6001015,57.6001015-57.6001015v6.3999023c-28.2313995,0-51.2001991,22.9687996-51.2001991,51.2001991
			S-10.2313995,69.2002029,18,69.2002029S69.2002029,46.2313995,69.2002029,18h6.3993988
			C75.5996017,49.7598,49.7598,75.5996017,18,75.5996017z"/>
		<g>
			<g>
				<path class="st6" d="M21.2001991-4.1782198V-7.6001h3.200201V-14H11.6000996v6.3999h3.1997004v3.4218802
					C2.19238-2.5952101-7.6001,8.1704102-7.6001,21.2001991C-7.6001,35.3153992,3.88428,46.7998009,18,46.7998009
					c14.1152,0,25.5996017-11.4844017,25.5996017-25.5996017C43.5996017,8.1704102,33.8065987-2.5952101,21.2001991-4.1782198z
					 M18,40.4003983C7.4126,40.4003983-1.2002,31.7870998-1.2002,21.2001991C-1.2002,10.6122999,7.4126,2,18,2
					c10.5879002,0,19.2001991,8.6122999,19.2001991,19.2001991C37.2001991,31.7870998,28.5879002,40.4003983,18,40.4003983z"/>
				<polygon class="st6" points="21.2001991,8.3999004 14.7997999,8.3999004 14.7997999,27.5995998 27.5995998,27.5995998 
					27.5995998,21.2001991 21.2001991,21.2001991 				"/>
			</g>
			<path class="st6" d="M67.0313034,3.2124c-4.9747047-16.4766006-17.7784042-29.2777996-34.2471046-34.2450981L34.6348-37.1610985
				C53.1591988-31.5718002,67.5625-17.1704006,73.1563034,1.3623L67.0313034,3.2124z"/>
		</g>
	</g>
</g>
<g id="_x32_C_EMF_Icon" class="st0">
	<g class="st4">
		<path d="M18,75.5996017C-13.7607002,75.5996017-39.6001015,49.7598-39.6001015,18
			c0-31.7607002,25.8394012-57.6001015,57.6001015-57.6001015v6.3999023c-28.2313995,0-51.2001991,22.9687996-51.2001991,51.2001991
			S-10.2313995,69.2002029,18,69.2002029S69.2002029,46.2313995,69.2002029,18h6.3993988
			C75.5996017,49.7598,49.7598,75.5996017,18,75.5996017z"/>
		<g>
			<g>
				<path class="st6" d="M21.2001991-4.1782198V-7.6001h3.200201V-14H11.6000996v6.3999h3.1997004v3.4218802
					C2.19238-2.5952101-7.6001,8.1704102-7.6001,21.2001991C-7.6001,35.3153992,3.88428,46.7998009,18,46.7998009
					c14.1152,0,25.5996017-11.4844017,25.5996017-25.5996017C43.5996017,8.1704102,33.8065987-2.5952101,21.2001991-4.1782198z
					 M18,40.4003983C7.4126,40.4003983-1.2002,31.7870998-1.2002,21.2001991C-1.2002,10.6122999,7.4126,2,18,2
					c10.5879002,0,19.2001991,8.6122999,19.2001991,19.2001991C37.2001991,31.7870998,28.5879002,40.4003983,18,40.4003983z"/>
				<polygon class="st6" points="21.2001991,8.3999004 14.7997999,8.3999004 14.7997999,27.5995998 27.5995998,27.5995998 
					27.5995998,21.2001991 21.2001991,21.2001991 				"/>
			</g>
			<path class="st6" d="M67.0313034,3.2124c-4.9747047-16.4766006-17.7784042-29.2777996-34.2471046-34.2450981L34.6348-37.1610985
				C53.1591988-31.5718002,67.5625-17.1704006,73.1563034,1.3623L67.0313034,3.2124z"/>
		</g>
	</g>
</g>
</svg>
